<svg width="88" height="68" viewBox="0 0 88 68" fill="none" xmlns="http://www.w3.org/2000/svg">
<path d="M10.9393 67.0607C11.5251 67.6465 12.4749 67.6465 13.0607 67.0607L22.6066 57.5147C23.1924 56.9289 23.1924 55.9792 22.6066 55.3934C22.0208 54.8076 21.0711 54.8076 20.4853 55.3934L12 63.8787L3.51472 55.3934C2.92893 54.8076 1.97919 54.8076 1.3934 55.3934C0.807611 55.9792 0.807611 56.9289 1.3934 57.5147L10.9393 67.0607ZM87.5 0.5C65.0478 0.5 45.7984 5.64306 32.1309 16.4744C18.4098 27.3482 10.5 43.8091 10.5 66H13.5C13.5 44.5909 21.0902 29.0518 33.9941 18.8256C46.9516 8.55694 65.4522 3.5 87.5 3.5V0.5Z" fill="#1B1B1B"/>
</svg>
