<svg width="94" height="94" viewBox="0 0 94 94" fill="none" xmlns="http://www.w3.org/2000/svg">
<rect x="24.5" y="20.5" width="69" height="69" rx="3.5" fill="#FFFBF3" stroke="#1B1B1B"/>
<rect x="12.5" y="12.5" width="69" height="69" rx="3.5" fill="#FFF9EB" stroke="#1B1B1B"/>
<rect x="0.5" y="4.5" width="69" height="69" rx="3.5" fill="#FFF6E0" stroke="#1B1B1B"/>
<path d="M52.9384 56.5881H17.507C16.3324 56.5881 15.2059 56.1215 14.3753 55.2909C13.5447 54.4603 13.0781 53.3338 13.0781 52.1592V25.5857C13.0781 24.411 13.5447 23.2845 14.3753 22.4539C15.2059 21.6234 16.3324 21.1567 17.507 21.1567H52.9384C54.113 21.1567 55.2396 21.6234 56.0701 22.4539C56.9007 23.2845 57.3673 24.411 57.3673 25.5857V52.1592C57.3673 53.3338 56.9007 54.4603 56.0701 55.2909C55.2396 56.1215 54.113 56.5881 52.9384 56.5881ZM19.7215 41.0869V45.5158H44.0806V41.0869H19.7215ZM19.7215 32.229V36.658H50.724V32.229H19.7215Z" fill="#E4AB16"/>
</svg>
