<svg width="94" height="94" viewBox="0 0 94 94" fill="none" xmlns="http://www.w3.org/2000/svg">
<rect x="24.5" y="20.5" width="69" height="69" rx="3.5" fill="#FFFBF3" stroke="#1B1B1B"/>
<rect x="12.5" y="12.5" width="69" height="69" rx="3.5" fill="#FFF9EB" stroke="#1B1B1B"/>
<rect x="0.5" y="4.5" width="69" height="69" rx="3.5" fill="#FFF6E0" stroke="#1B1B1B"/>
<path d="M52.9384 56.5884H17.507C16.3324 56.5884 15.2059 56.1217 14.3753 55.2912C13.5447 54.4606 13.0781 53.3341 13.0781 52.1594V25.5859C13.0781 24.4113 13.5447 23.2848 14.3753 22.4542C15.2059 21.6236 16.3324 21.157 17.507 21.157H52.9384C54.113 21.157 55.2396 21.6236 56.0701 22.4542C56.9007 23.2848 57.3673 24.4113 57.3673 25.5859V52.1594C57.3673 53.3341 56.9007 54.4606 56.0701 55.2912C55.2396 56.1217 54.113 56.5884 52.9384 56.5884ZM19.7215 41.0871V45.5161H44.0806V41.0871H19.7215ZM19.7215 32.2293V36.6582H50.724V32.2293H19.7215Z" fill="#E4AB16"/>
</svg>
