<svg width="94" height="94" viewBox="0 0 94 94" fill="none" xmlns="http://www.w3.org/2000/svg">
<rect x="24.5" y="20.5001" width="69" height="69" rx="3.5" fill="#FFFAF5" stroke="#1B1B1B"/>
<rect x="12.5" y="12.5001" width="69" height="69" rx="3.5" fill="#FFF4E9" stroke="#1B1B1B"/>
<rect x="0.5" y="4.5" width="69" height="69" rx="3.5" fill="#FFF0E1" stroke="#1B1B1B"/>
<path d="M34.9994 21.6667C37.2979 21.6667 39.5023 22.5798 41.1276 24.2051C42.7529 25.8304 43.666 28.0348 43.666 30.3334C43.666 32.6319 42.7529 34.8363 41.1276 36.4616C39.5023 38.0869 37.2979 39 34.9994 39C32.7008 39 30.4964 38.0869 28.8711 36.4616C27.2458 34.8363 26.3327 32.6319 26.3327 30.3334C26.3327 28.0348 27.2458 25.8304 28.8711 24.2051C30.4964 22.5798 32.7008 21.6667 34.9994 21.6667ZM34.9994 43.3334C44.576 43.3334 52.3327 47.2117 52.3327 52L52.3327 56.3334L17.666 56.3334L17.666 52C17.666 47.2117 25.4227 43.3334 34.9994 43.3334Z" fill="#F59757"/>
</svg>
