<svg width="94" height="94" viewBox="0 0 94 94" fill="none" xmlns="http://www.w3.org/2000/svg">
<rect x="24.5" y="20.5" width="69" height="69" rx="3.5" fill="#F8FAFF" stroke="#1B1B1B"/>
<rect x="12.5" y="12.5" width="69" height="69" rx="3.5" fill="#F0F5FF" stroke="#1B1B1B"/>
<rect x="0.5" y="4.5" width="69" height="69" rx="3.5" fill="#E0EBFF" stroke="#1B1B1B"/>
<path d="M49.9975 44.005L52.5 41.5025L49.9975 39L43.75 45.2475L28.7525 30.25L35 24.0025L32.4975 21.5L29.995 24.0025L27.4925 21.5L23.7475 25.245L21.245 22.7425L18.7425 25.245L21.245 27.7475L17.5 31.4925L20.0025 33.995L17.5 36.4975L20.0025 39L26.25 32.7525L41.2475 47.75L35 53.9975L37.5025 56.5L40.005 53.9975L42.5075 56.5L46.2525 52.755L48.755 55.2575L51.2575 52.755L48.755 50.2525L52.5 46.5075L49.9975 44.005Z" fill="#1B61EA"/>
</svg>
