<svg width="684" height="312" viewBox="0 0 684 312" fill="none" xmlns="http://www.w3.org/2000/svg">
<path d="M2.60369 17L7.0483 8.21023V8.13565H1.90767V6.81818H8.6392V8.1804L4.20952 17H2.60369ZM13.6941 17.169C12.9086 17.1657 12.2374 16.9586 11.6806 16.5476C11.1238 16.1366 10.6979 15.5384 10.4029 14.7528C10.1079 13.9673 9.9604 13.0211 9.9604 11.9141C9.9604 10.8104 10.1079 9.86742 10.4029 9.08523C10.7012 8.30303 11.1287 7.70644 11.6855 7.29545C12.2457 6.88447 12.9152 6.67898 13.6941 6.67898C14.473 6.67898 15.1408 6.88613 15.6976 7.30043C16.2544 7.71141 16.6803 8.308 16.9753 9.0902C17.2736 9.86908 17.4228 10.8104 17.4228 11.9141C17.4228 13.0244 17.2753 13.9723 16.9803 14.7578C16.6853 15.54 16.2594 16.1383 15.7026 16.5526C15.1458 16.9635 14.4763 17.169 13.6941 17.169ZM13.6941 15.8416C14.3835 15.8416 14.9221 15.5052 15.3098 14.8324C15.7009 14.1596 15.8965 13.1868 15.8965 11.9141C15.8965 11.0689 15.807 10.3546 15.628 9.77131C15.4524 9.18466 15.1988 8.74053 14.8674 8.43892C14.5392 8.134 14.1481 7.98153 13.6941 7.98153C13.008 7.98153 12.4694 8.3196 12.0783 8.99574C11.6872 9.67187 11.49 10.6446 11.4867 11.9141C11.4867 12.7625 11.5745 13.4801 11.7502 14.0668C11.9292 14.6501 12.1827 15.0926 12.5108 15.3942C12.839 15.6925 13.2334 15.8416 13.6941 15.8416ZM20.5735 14.4098L20.5636 12.5952H20.8221L23.8647 9.36364H25.6445L22.1744 13.0426H21.9407L20.5735 14.4098ZM19.2063 17V6.81818H20.6928V17H19.2063ZM24.0288 17L21.2944 13.3707L22.3185 12.3317L25.8533 17H24.0288Z" fill="#B6B6B6"/>
<path d="M4.80362 57.1392C4.34955 57.1326 3.90211 57.0497 3.46129 56.8906C3.02379 56.7315 2.62607 56.4664 2.26811 56.0952C1.91016 55.724 1.62346 55.2251 1.40803 54.5987C1.1959 53.9723 1.08984 53.1901 1.08984 52.2521C1.08984 51.3639 1.17768 50.575 1.35334 49.8857C1.53232 49.1963 1.78918 48.6146 2.12393 48.1406C2.45869 47.6634 2.86304 47.3004 3.337 47.0518C3.81096 46.8033 4.34292 46.679 4.93288 46.679C5.53942 46.679 6.07801 46.7983 6.54865 47.0369C7.01929 47.2756 7.40045 47.6054 7.69212 48.0263C7.9871 48.4472 8.17436 48.9261 8.25391 49.4631H6.73757C6.63483 49.0388 6.43099 48.6925 6.12607 48.424C5.82114 48.1555 5.42341 48.0213 4.93288 48.0213C4.18714 48.0213 3.60547 48.3461 3.18786 48.9957C2.77356 49.6454 2.56475 50.5485 2.56143 51.7053H2.63601C2.81167 51.4169 3.02711 51.1716 3.28232 50.9695C3.54084 50.764 3.82919 50.6065 4.14737 50.4972C4.46887 50.3845 4.80694 50.3281 5.16158 50.3281C5.75154 50.3281 6.28516 50.4723 6.76243 50.7607C7.24302 51.0457 7.62583 51.4401 7.91087 51.9439C8.1959 52.4477 8.33842 53.0244 8.33842 53.674C8.33842 54.3236 8.19093 54.9119 7.89595 55.4389C7.60428 55.9659 7.1933 56.3835 6.663 56.6918C6.13269 56.9967 5.5129 57.1458 4.80362 57.1392ZM4.79865 55.8466C5.18975 55.8466 5.53942 55.7505 5.84766 55.5582C6.1559 55.366 6.3995 55.1075 6.57848 54.7827C6.75746 54.4579 6.84695 54.0949 6.84695 53.6939C6.84695 53.3028 6.75911 52.9465 6.58345 52.625C6.4111 52.3035 6.17247 52.0483 5.86754 51.8594C5.56593 51.6705 5.22124 51.576 4.83345 51.576C4.53847 51.576 4.26503 51.6323 4.01314 51.745C3.76456 51.8577 3.54581 52.0135 3.35689 52.2124C3.16797 52.4112 3.01882 52.6399 2.90945 52.8984C2.80339 53.1536 2.75036 53.4238 2.75036 53.7088C2.75036 54.09 2.83819 54.4429 3.01385 54.7678C3.19283 55.0926 3.43643 55.3544 3.74467 55.5533C4.05623 55.7488 4.40755 55.8466 4.79865 55.8466ZM13.6941 57.169C12.9086 57.1657 12.2374 56.9586 11.6806 56.5476C11.1238 56.1366 10.6979 55.5384 10.4029 54.7528C10.1079 53.9673 9.9604 53.0211 9.9604 51.9141C9.9604 50.8104 10.1079 49.8674 10.4029 49.0852C10.7012 48.303 11.1287 47.7064 11.6855 47.2955C12.2457 46.8845 12.9152 46.679 13.6941 46.679C14.473 46.679 15.1408 46.8861 15.6976 47.3004C16.2544 47.7114 16.6803 48.308 16.9753 49.0902C17.2736 49.8691 17.4228 50.8104 17.4228 51.9141C17.4228 53.0244 17.2753 53.9723 16.9803 54.7578C16.6853 55.54 16.2594 56.1383 15.7026 56.5526C15.1458 56.9635 14.4763 57.169 13.6941 57.169ZM13.6941 55.8416C14.3835 55.8416 14.9221 55.5052 15.3098 54.8324C15.7009 54.1596 15.8965 53.1868 15.8965 51.9141C15.8965 51.0689 15.807 50.3546 15.628 49.7713C15.4524 49.1847 15.1988 48.7405 14.8674 48.4389C14.5392 48.134 14.1481 47.9815 13.6941 47.9815C13.008 47.9815 12.4694 48.3196 12.0783 48.9957C11.6872 49.6719 11.49 50.6446 11.4867 51.9141C11.4867 52.7625 11.5745 53.4801 11.7502 54.0668C11.9292 54.6501 12.1827 55.0926 12.5108 55.3942C12.839 55.6925 13.2334 55.8416 13.6941 55.8416ZM20.5735 54.4098L20.5636 52.5952H20.8221L23.8647 49.3636H25.6445L22.1744 53.0426H21.9407L20.5735 54.4098ZM19.2063 57V46.8182H20.6928V57H19.2063ZM24.0288 57L21.2944 53.3707L22.3185 52.3317L25.8533 57H24.0288Z" fill="#B6B6B6"/>
<path d="M4.82848 97.1392C4.20537 97.1392 3.64524 97.0199 3.14808 96.7812C2.65424 96.5393 2.25982 96.2079 1.96484 95.7869C1.66986 95.366 1.51243 94.8854 1.49254 94.3452H2.98402C3.02048 94.7827 3.21437 95.1423 3.5657 95.424C3.91702 95.7057 4.33795 95.8466 4.82848 95.8466C5.21958 95.8466 5.56593 95.7571 5.86754 95.5781C6.17247 95.3958 6.4111 95.1456 6.58345 94.8274C6.75911 94.5092 6.84695 94.1463 6.84695 93.7386C6.84695 93.3243 6.75746 92.9548 6.57848 92.63C6.3995 92.3052 6.15258 92.05 5.83771 91.8643C5.52616 91.6787 5.16821 91.5843 4.76385 91.581C4.45561 91.581 4.14571 91.634 3.83416 91.7401C3.52261 91.8461 3.27071 91.9853 3.07848 92.1577L1.67152 91.9489L2.24325 86.8182H7.84126V88.1357H3.52095L3.1978 90.9844H3.25746C3.45632 90.7921 3.71982 90.6314 4.04794 90.5021C4.37938 90.3729 4.73402 90.3082 5.11186 90.3082C5.73165 90.3082 6.2835 90.4557 6.7674 90.7507C7.25462 91.0457 7.63743 91.4484 7.91584 91.9588C8.19756 92.4659 8.33677 93.0492 8.33345 93.7088C8.33677 94.3684 8.18762 94.9567 7.88601 95.4737C7.58771 95.9908 7.17341 96.3984 6.64311 96.6967C6.11612 96.9917 5.51125 97.1392 4.82848 97.1392ZM13.6941 97.169C12.9086 97.1657 12.2374 96.9586 11.6806 96.5476C11.1238 96.1366 10.6979 95.5384 10.4029 94.7528C10.1079 93.9673 9.9604 93.0211 9.9604 91.9141C9.9604 90.8104 10.1079 89.8674 10.4029 89.0852C10.7012 88.303 11.1287 87.7064 11.6855 87.2955C12.2457 86.8845 12.9152 86.679 13.6941 86.679C14.473 86.679 15.1408 86.8861 15.6976 87.3004C16.2544 87.7114 16.6803 88.308 16.9753 89.0902C17.2736 89.8691 17.4228 90.8104 17.4228 91.9141C17.4228 93.0244 17.2753 93.9723 16.9803 94.7578C16.6853 95.54 16.2594 96.1383 15.7026 96.5526C15.1458 96.9635 14.4763 97.169 13.6941 97.169ZM13.6941 95.8416C14.3835 95.8416 14.9221 95.5052 15.3098 94.8324C15.7009 94.1596 15.8965 93.1868 15.8965 91.9141C15.8965 91.0689 15.807 90.3546 15.628 89.7713C15.4524 89.1847 15.1988 88.7405 14.8674 88.4389C14.5392 88.134 14.1481 87.9815 13.6941 87.9815C13.008 87.9815 12.4694 88.3196 12.0783 88.9957C11.6872 89.6719 11.49 90.6446 11.4867 91.9141C11.4867 92.7625 11.5745 93.4801 11.7502 94.0668C11.9292 94.6501 12.1827 95.0926 12.5108 95.3942C12.839 95.6925 13.2334 95.8416 13.6941 95.8416ZM20.5735 94.4098L20.5636 92.5952H20.8221L23.8647 89.3636H25.6445L22.1744 93.0426H21.9407L20.5735 94.4098ZM19.2063 97V86.8182H20.6928V97H19.2063ZM24.0288 97L21.2944 93.3707L22.3185 92.3317L25.8533 97H24.0288Z" fill="#B6B6B6"/>
<path d="M0.775391 135.011V133.768L5.17525 126.818H6.15465V128.648H5.5332L2.38619 133.629V133.709H8.41673V135.011H0.775391ZM5.60281 137V134.634L5.61275 134.067V126.818H7.06942V137H5.60281ZM13.6941 137.169C12.9086 137.166 12.2374 136.959 11.6806 136.548C11.1238 136.137 10.6979 135.538 10.4029 134.753C10.1079 133.967 9.9604 133.021 9.9604 131.914C9.9604 130.81 10.1079 129.867 10.4029 129.085C10.7012 128.303 11.1287 127.706 11.6855 127.295C12.2457 126.884 12.9152 126.679 13.6941 126.679C14.473 126.679 15.1408 126.886 15.6976 127.3C16.2544 127.711 16.6803 128.308 16.9753 129.09C17.2736 129.869 17.4228 130.81 17.4228 131.914C17.4228 133.024 17.2753 133.972 16.9803 134.758C16.6853 135.54 16.2594 136.138 15.7026 136.553C15.1458 136.964 14.4763 137.169 13.6941 137.169ZM13.6941 135.842C14.3835 135.842 14.9221 135.505 15.3098 134.832C15.7009 134.16 15.8965 133.187 15.8965 131.914C15.8965 131.069 15.807 130.355 15.628 129.771C15.4524 129.185 15.1988 128.741 14.8674 128.439C14.5392 128.134 14.1481 127.982 13.6941 127.982C13.008 127.982 12.4694 128.32 12.0783 128.996C11.6872 129.672 11.49 130.645 11.4867 131.914C11.4867 132.763 11.5745 133.48 11.7502 134.067C11.9292 134.65 12.1827 135.093 12.5108 135.394C12.839 135.692 13.2334 135.842 13.6941 135.842ZM20.5735 134.41L20.5636 132.595H20.8221L23.8647 129.364H25.6445L22.1744 133.043H21.9407L20.5735 134.41ZM19.2063 137V126.818H20.6928V137H19.2063ZM24.0288 137L21.2944 133.371L22.3185 132.332L25.8533 137H24.0288Z" fill="#B6B6B6"/>
<path d="M4.67063 177.139C3.98787 177.139 3.37802 177.022 2.84109 176.786C2.30747 176.551 1.88488 176.224 1.57333 175.807C1.26509 175.386 1.09937 174.899 1.07617 174.345H2.63725C2.65714 174.647 2.75823 174.909 2.94052 175.131C3.12612 175.349 3.36808 175.518 3.66637 175.638C3.96467 175.757 4.29611 175.817 4.66069 175.817C5.06173 175.817 5.41637 175.747 5.72461 175.608C6.03616 175.469 6.27977 175.275 6.45543 175.026C6.6311 174.774 6.71893 174.484 6.71893 174.156C6.71893 173.815 6.6311 173.515 6.45543 173.256C6.28308 172.995 6.02953 172.789 5.69478 172.64C5.36334 172.491 4.9623 172.416 4.49165 172.416H3.63157V171.163H4.49165C4.8695 171.163 5.20094 171.095 5.48597 170.96C5.77433 170.824 5.9997 170.635 6.16211 170.393C6.32451 170.147 6.40572 169.861 6.40572 169.533C6.40572 169.218 6.33446 168.944 6.19194 168.712C6.05273 168.477 5.85387 168.293 5.59535 168.161C5.34014 168.028 5.03853 167.962 4.69052 167.962C4.35908 167.962 4.04918 168.023 3.76083 168.146C3.47579 168.265 3.24379 168.437 3.06481 168.663C2.88583 168.885 2.78971 169.152 2.77646 169.463H1.28995C1.30652 168.913 1.46893 168.429 1.77717 168.011C2.08872 167.594 2.4997 167.267 3.01012 167.032C3.52054 166.797 4.0873 166.679 4.71041 166.679C5.36334 166.679 5.92679 166.807 6.40075 167.062C6.87802 167.314 7.24592 167.65 7.50444 168.071C7.76628 168.492 7.89554 168.953 7.89222 169.453C7.89554 170.023 7.73645 170.507 7.41495 170.905C7.09677 171.303 6.67253 171.569 6.14222 171.705V171.785C6.81836 171.888 7.34203 172.156 7.71325 172.59C8.08777 173.024 8.27338 173.563 8.27006 174.206C8.27338 174.766 8.1176 175.268 7.80273 175.712C7.49118 176.156 7.06528 176.506 6.52504 176.761C5.98479 177.013 5.36665 177.139 4.67063 177.139ZM13.6941 177.169C12.9086 177.166 12.2374 176.959 11.6806 176.548C11.1238 176.137 10.6979 175.538 10.4029 174.753C10.1079 173.967 9.9604 173.021 9.9604 171.914C9.9604 170.81 10.1079 169.867 10.4029 169.085C10.7012 168.303 11.1287 167.706 11.6855 167.295C12.2457 166.884 12.9152 166.679 13.6941 166.679C14.473 166.679 15.1408 166.886 15.6976 167.3C16.2544 167.711 16.6803 168.308 16.9753 169.09C17.2736 169.869 17.4228 170.81 17.4228 171.914C17.4228 173.024 17.2753 173.972 16.9803 174.758C16.6853 175.54 16.2594 176.138 15.7026 176.553C15.1458 176.964 14.4763 177.169 13.6941 177.169ZM13.6941 175.842C14.3835 175.842 14.9221 175.505 15.3098 174.832C15.7009 174.16 15.8965 173.187 15.8965 171.914C15.8965 171.069 15.807 170.355 15.628 169.771C15.4524 169.185 15.1988 168.741 14.8674 168.439C14.5392 168.134 14.1481 167.982 13.6941 167.982C13.008 167.982 12.4694 168.32 12.0783 168.996C11.6872 169.672 11.49 170.645 11.4867 171.914C11.4867 172.763 11.5745 173.48 11.7502 174.067C11.9292 174.65 12.1827 175.093 12.5108 175.394C12.839 175.692 13.2334 175.842 13.6941 175.842ZM20.5735 174.41L20.5636 172.595H20.8221L23.8647 169.364H25.6445L22.1744 173.043H21.9407L20.5735 174.41ZM19.2063 177V166.818H20.6928V177H19.2063ZM24.0288 177L21.2944 173.371L22.3185 172.332L25.8533 177H24.0288Z" fill="#B6B6B6"/>
<path d="M1.56339 217V215.886L5.0087 212.317C5.3766 211.929 5.67987 211.589 5.9185 211.298C6.16045 211.003 6.34109 210.723 6.46041 210.457C6.57972 210.192 6.63938 209.911 6.63938 209.612C6.63938 209.274 6.55984 208.982 6.40075 208.737C6.24165 208.489 6.02456 208.298 5.74947 208.165C5.47437 208.03 5.16448 207.962 4.81978 207.962C4.4552 207.962 4.13701 208.036 3.86523 208.185C3.59345 208.335 3.38465 208.545 3.23881 208.817C3.09298 209.089 3.02006 209.407 3.02006 209.771H1.55344C1.55344 209.152 1.69596 208.61 1.981 208.146C2.26604 207.682 2.65714 207.322 3.1543 207.067C3.65146 206.808 4.21656 206.679 4.84961 206.679C5.48929 206.679 6.05273 206.807 6.53995 207.062C7.03048 207.314 7.41329 207.658 7.68839 208.096C7.96348 208.53 8.10103 209.021 8.10103 209.567C8.10103 209.945 8.02977 210.315 7.88725 210.676C7.74805 211.037 7.50444 211.44 7.15643 211.884C6.80842 212.325 6.32451 212.86 5.70472 213.49L3.68129 215.608V215.683H8.26509V217H1.56339ZM13.6941 217.169C12.9086 217.166 12.2374 216.959 11.6806 216.548C11.1238 216.137 10.6979 215.538 10.4029 214.753C10.1079 213.967 9.9604 213.021 9.9604 211.914C9.9604 210.81 10.1079 209.867 10.4029 209.085C10.7012 208.303 11.1287 207.706 11.6855 207.295C12.2457 206.884 12.9152 206.679 13.6941 206.679C14.473 206.679 15.1408 206.886 15.6976 207.3C16.2544 207.711 16.6803 208.308 16.9753 209.09C17.2736 209.869 17.4228 210.81 17.4228 211.914C17.4228 213.024 17.2753 213.972 16.9803 214.758C16.6853 215.54 16.2594 216.138 15.7026 216.553C15.1458 216.964 14.4763 217.169 13.6941 217.169ZM13.6941 215.842C14.3835 215.842 14.9221 215.505 15.3098 214.832C15.7009 214.16 15.8965 213.187 15.8965 211.914C15.8965 211.069 15.807 210.355 15.628 209.771C15.4524 209.185 15.1988 208.741 14.8674 208.439C14.5392 208.134 14.1481 207.982 13.6941 207.982C13.008 207.982 12.4694 208.32 12.0783 208.996C11.6872 209.672 11.49 210.645 11.4867 211.914C11.4867 212.763 11.5745 213.48 11.7502 214.067C11.9292 214.65 12.1827 215.093 12.5108 215.394C12.839 215.692 13.2334 215.842 13.6941 215.842ZM20.5735 214.41L20.5636 212.595H20.8221L23.8647 209.364H25.6445L22.1744 213.043H21.9407L20.5735 214.41ZM19.2063 217V206.818H20.6928V217H19.2063ZM24.0288 217L21.2944 213.371L22.3185 212.332L25.8533 217H24.0288Z" fill="#B6B6B6"/>
<path d="M21.487 257.169C20.7015 257.166 20.0304 256.959 19.4735 256.548C18.9167 256.137 18.4908 255.538 18.1958 254.753C17.9009 253.967 17.7534 253.021 17.7534 251.914C17.7534 250.81 17.9009 249.867 18.1958 249.085C18.4941 248.303 18.9217 247.706 19.4785 247.295C20.0386 246.884 20.7082 246.679 21.487 246.679C22.2659 246.679 22.9338 246.886 23.4906 247.3C24.0474 247.711 24.4733 248.308 24.7683 249.09C25.0666 249.869 25.2157 250.81 25.2157 251.914C25.2157 253.024 25.0682 253.972 24.7733 254.758C24.4783 255.54 24.0524 256.138 23.4956 256.553C22.9387 256.964 22.2692 257.169 21.487 257.169ZM21.487 255.842C22.1764 255.842 22.715 255.505 23.1028 254.832C23.4939 254.16 23.6895 253.187 23.6895 251.914C23.6895 251.069 23.6 250.355 23.421 249.771C23.2453 249.185 22.9918 248.741 22.6603 248.439C22.3322 248.134 21.9411 247.982 21.487 247.982C20.801 247.982 20.2624 248.32 19.8713 248.996C19.4802 249.672 19.283 250.645 19.2797 251.914C19.2797 252.763 19.3675 253.48 19.5431 254.067C19.7221 254.65 19.9757 255.093 20.3038 255.394C20.6319 255.692 21.0263 255.842 21.487 255.842Z" fill="#B6B6B6"/>
<line x1="46" y1="23.5" x2="684" y2="23.5001" stroke="#3A3A3A"/>
<line x1="46" y1="63.5" x2="684" y2="63.5001" stroke="#3A3A3A"/>
<line x1="46" y1="103.5" x2="684" y2="103.5" stroke="#3A3A3A"/>
<line x1="46" y1="143.5" x2="684" y2="143.5" stroke="#3A3A3A"/>
<line x1="46" y1="183.5" x2="684" y2="183.5" stroke="#3A3A3A"/>
<line x1="46" y1="223.5" x2="684" y2="223.5" stroke="#3A3A3A"/>
<line x1="46" y1="263.5" x2="684" y2="263.5" stroke="#3A3A3A"/>
<path d="M51 104H91V264H51V104Z" fill="#00AD8E"/>
<path d="M51 202.113H91V264H51V202.113Z" fill="#E7783A"/>
<path d="M51 233.811H91V264H51V233.811Z" fill="#E74E3A"/>
<path d="M124 196H164V264H124V196Z" fill="#00AD8E"/>
<path d="M124 237.698H164V264H124V237.698Z" fill="#E7783A"/>
<path d="M124 251.17H164V264H124V251.17Z" fill="#E74E3A"/>
<path d="M193 24H241V264H193V24Z" fill="#383838"/>
<path d="M197 109H237V264H197V109Z" fill="#00AD8E"/>
<path d="M197 204.047H237V264H197V204.047Z" fill="#E7783A"/>
<path d="M197 234.755H237V264H197V234.755Z" fill="#E74E3A"/>
<path d="M270 144H310V264H270V144Z" fill="#00AD8E"/>
<path d="M270 217.585H310V264H270V217.585Z" fill="#E7783A"/>
<path d="M270 241.358H310V264H270V241.358Z" fill="#E74E3A"/>
<path d="M343 24H383V264H343V24Z" fill="#00AD8E"/>
<path d="M343 171.17H383V264H343V171.17Z" fill="#E7783A"/>
<path d="M343 218.717H383V264H343V218.717Z" fill="#E74E3A"/>
<path d="M416 142H456V264H416V142Z" fill="#00AD8E"/>
<path d="M416 216.811H456V264H416V216.811Z" fill="#E7783A"/>
<path d="M416 240.981H456V264H416V240.981Z" fill="#E74E3A"/>
<path d="M489 24H529V264H489V24Z" fill="#00AD8E"/>
<path d="M489 171.17H529V264H489V171.17Z" fill="#E7783A"/>
<path d="M489 218.717H529V264H489V218.717Z" fill="#E74E3A"/>
<path d="M562 132H602V264H562V132Z" fill="#00AD8E"/>
<path d="M562 212.943H602V264H562V212.943Z" fill="#E7783A"/>
<path d="M562 239.094H602V264H562V239.094Z" fill="#E74E3A"/>
<path d="M635 189H675V264H635V189Z" fill="#00AD8E"/>
<path d="M635 234.99H675V264H635V234.99Z" fill="#E7783A"/>
<path d="M635 249.849H675V264H635V249.849Z" fill="#E74E3A"/>
<path d="M63.5447 294.818H65.076V302.037C65.076 302.69 64.9467 303.248 64.6882 303.712C64.433 304.176 64.0734 304.531 63.6094 304.776C63.1454 305.018 62.6018 305.139 61.9787 305.139C61.4053 305.139 60.8899 305.035 60.4325 304.826C59.9785 304.617 59.6188 304.314 59.3537 303.916C59.0919 303.515 58.9609 303.028 58.9609 302.455H60.4872C60.4872 302.736 60.5518 302.98 60.6811 303.185C60.8137 303.391 60.9943 303.552 61.223 303.668C61.455 303.78 61.7202 303.837 62.0185 303.837C62.3433 303.837 62.6184 303.769 62.8438 303.633C63.0724 303.494 63.2464 303.29 63.3658 303.021C63.4851 302.753 63.5447 302.425 63.5447 302.037V294.818ZM69.415 305.169C68.931 305.169 68.4935 305.08 68.1025 304.901C67.7114 304.718 67.4015 304.455 67.1728 304.11C66.9474 303.765 66.8347 303.343 66.8347 302.842C66.8347 302.411 66.9176 302.057 67.0833 301.778C67.249 301.5 67.4727 301.28 67.7544 301.117C68.0362 300.955 68.351 300.832 68.699 300.749C69.0471 300.666 69.4017 300.603 69.763 300.56C70.2203 300.507 70.5916 300.464 70.8766 300.431C71.1616 300.395 71.3688 300.337 71.498 300.257C71.6273 300.178 71.6919 300.048 71.6919 299.869V299.835C71.6919 299.4 71.5693 299.064 71.324 298.825C71.0821 298.587 70.7208 298.467 70.2402 298.467C69.7398 298.467 69.3453 298.578 69.057 298.8C68.772 299.019 68.5748 299.263 68.4654 299.531L67.0684 299.213C67.2341 298.749 67.476 298.375 67.7942 298.089C68.1157 297.801 68.4853 297.592 68.9029 297.463C69.3205 297.33 69.7596 297.264 70.2203 297.264C70.5253 297.264 70.8484 297.301 71.1898 297.374C71.5345 297.443 71.856 297.572 72.1543 297.761C72.4559 297.95 72.7028 298.22 72.8951 298.572C73.0873 298.92 73.1834 299.372 73.1834 299.929V305H71.7317V303.956H71.6721C71.5759 304.148 71.4318 304.337 71.2395 304.523C71.0473 304.708 70.8004 304.862 70.4988 304.985C70.1971 305.108 69.8359 305.169 69.415 305.169ZM69.7381 303.976C70.1491 303.976 70.5004 303.895 70.7921 303.732C71.0871 303.57 71.3108 303.358 71.4632 303.096C71.619 302.831 71.6969 302.547 71.6969 302.246V301.261C71.6439 301.314 71.5411 301.364 71.3887 301.411C71.2395 301.454 71.0688 301.492 70.8766 301.525C70.6844 301.555 70.4971 301.583 70.3148 301.609C70.1325 301.633 69.9801 301.652 69.8574 301.669C69.5691 301.705 69.3056 301.767 69.0669 301.853C68.8316 301.939 68.6427 302.063 68.5002 302.226C68.361 302.385 68.2914 302.597 68.2914 302.862C68.2914 303.23 68.4273 303.509 68.699 303.697C68.9708 303.883 69.3172 303.976 69.7381 303.976ZM76.6499 300.466V305H75.1634V297.364H76.5902V298.607H76.6847C76.8603 298.202 77.1354 297.877 77.5099 297.632C77.8878 297.387 78.3634 297.264 78.9368 297.264C79.4571 297.264 79.9129 297.374 80.304 297.592C80.6951 297.808 80.9983 298.129 81.2138 298.557C81.4292 298.984 81.5369 299.513 81.5369 300.143V305H80.0504V300.322C80.0504 299.768 79.9063 299.336 79.6179 299.024C79.3295 298.709 78.9335 298.552 78.4297 298.552C78.085 298.552 77.7784 298.626 77.5099 298.776C77.2448 298.925 77.0343 299.143 76.8786 299.432C76.7261 299.717 76.6499 300.062 76.6499 300.466Z" fill="#B6B6B6"/>
<path d="M132.307 305V294.818H138.621V296.141H133.843V299.243H138.169V300.56H133.843V305H132.307ZM143.122 305.154C142.369 305.154 141.721 304.993 141.178 304.672C140.637 304.347 140.22 303.891 139.925 303.305C139.633 302.715 139.487 302.024 139.487 301.232C139.487 300.449 139.633 299.76 139.925 299.163C140.22 298.567 140.631 298.101 141.158 297.766C141.688 297.432 142.308 297.264 143.017 297.264C143.448 297.264 143.866 297.335 144.27 297.478C144.674 297.621 145.037 297.844 145.359 298.149C145.68 298.454 145.934 298.85 146.119 299.337C146.305 299.821 146.398 300.41 146.398 301.102V301.629H140.328V300.516H144.941C144.941 300.125 144.862 299.778 144.703 299.477C144.543 299.172 144.32 298.931 144.031 298.756C143.746 298.58 143.412 298.492 143.027 298.492C142.609 298.492 142.245 298.595 141.933 298.8C141.625 299.003 141.386 299.268 141.217 299.596C141.052 299.921 140.969 300.274 140.969 300.655V301.525C140.969 302.035 141.058 302.469 141.237 302.827C141.42 303.185 141.673 303.459 141.998 303.648C142.323 303.833 142.702 303.926 143.136 303.926C143.418 303.926 143.675 303.886 143.907 303.807C144.139 303.724 144.34 303.601 144.509 303.439C144.678 303.277 144.807 303.076 144.896 302.837L146.303 303.091C146.191 303.505 145.988 303.868 145.697 304.18C145.408 304.488 145.046 304.728 144.608 304.901C144.174 305.07 143.678 305.154 143.122 305.154ZM148.166 305V294.818H149.653V298.602H149.742C149.829 298.442 149.953 298.259 150.115 298.05C150.278 297.841 150.503 297.659 150.791 297.503C151.08 297.344 151.461 297.264 151.935 297.264C152.551 297.264 153.102 297.42 153.585 297.732C154.069 298.043 154.449 298.492 154.724 299.079C155.002 299.665 155.142 300.371 155.142 301.197C155.142 302.022 155.004 302.73 154.729 303.32C154.454 303.906 154.076 304.359 153.595 304.677C153.115 304.992 152.566 305.149 151.95 305.149C151.486 305.149 151.106 305.071 150.811 304.915C150.52 304.76 150.291 304.577 150.125 304.369C149.96 304.16 149.832 303.974 149.742 303.812H149.618V305H148.166ZM149.623 301.182C149.623 301.719 149.701 302.189 149.857 302.594C150.013 302.998 150.238 303.315 150.533 303.543C150.828 303.769 151.189 303.881 151.617 303.881C152.061 303.881 152.432 303.764 152.73 303.528C153.029 303.29 153.254 302.967 153.407 302.559C153.562 302.151 153.64 301.692 153.64 301.182C153.64 300.678 153.564 300.226 153.411 299.825C153.262 299.424 153.037 299.107 152.735 298.875C152.437 298.643 152.064 298.527 151.617 298.527C151.186 298.527 150.821 298.638 150.523 298.86C150.228 299.082 150.004 299.392 149.852 299.79C149.699 300.187 149.623 300.652 149.623 301.182Z" fill="#B6B6B6"/>
<path d="M204.665 294.818H206.529L209.77 302.733H209.89L213.131 294.818H214.995V305H213.534V297.632H213.439L210.437 304.985H209.223L206.221 297.627H206.126V305H204.665V294.818ZM219.332 305.169C218.848 305.169 218.411 305.08 218.019 304.901C217.628 304.718 217.318 304.455 217.09 304.11C216.864 303.765 216.752 303.343 216.752 302.842C216.752 302.411 216.835 302.057 217 301.778C217.166 301.5 217.39 301.28 217.671 301.117C217.953 300.955 218.268 300.832 218.616 300.749C218.964 300.666 219.319 300.603 219.68 300.56C220.137 300.507 220.509 300.464 220.794 300.431C221.079 300.395 221.286 300.337 221.415 300.257C221.544 300.178 221.609 300.048 221.609 299.869V299.835C221.609 299.4 221.486 299.064 221.241 298.825C220.999 298.587 220.638 298.467 220.157 298.467C219.657 298.467 219.262 298.578 218.974 298.8C218.689 299.019 218.492 299.263 218.382 299.531L216.985 299.213C217.151 298.749 217.393 298.375 217.711 298.089C218.033 297.801 218.402 297.592 218.82 297.463C219.237 297.33 219.677 297.264 220.137 297.264C220.442 297.264 220.765 297.301 221.107 297.374C221.451 297.443 221.773 297.572 222.071 297.761C222.373 297.95 222.62 298.22 222.812 298.572C223.004 298.92 223.1 299.372 223.1 299.929V305H221.649V303.956H221.589C221.493 304.148 221.349 304.337 221.157 304.523C220.964 304.708 220.717 304.862 220.416 304.985C220.114 305.108 219.753 305.169 219.332 305.169ZM219.655 303.976C220.066 303.976 220.417 303.895 220.709 303.732C221.004 303.57 221.228 303.358 221.38 303.096C221.536 302.831 221.614 302.547 221.614 302.246V301.261C221.561 301.314 221.458 301.364 221.306 301.411C221.157 301.454 220.986 301.492 220.794 301.525C220.601 301.555 220.414 301.583 220.232 301.609C220.05 301.633 219.897 301.652 219.774 301.669C219.486 301.705 219.223 301.767 218.984 301.853C218.749 301.939 218.56 302.063 218.417 302.226C218.278 302.385 218.208 302.597 218.208 302.862C218.208 303.23 218.344 303.509 218.616 303.697C218.888 303.883 219.234 303.976 219.655 303.976ZM225.08 305V297.364H226.517V298.577H226.597C226.736 298.166 226.981 297.843 227.332 297.607C227.687 297.369 228.088 297.249 228.536 297.249C228.628 297.249 228.738 297.253 228.864 297.259C228.993 297.266 229.094 297.274 229.167 297.284V298.706C229.107 298.689 229.001 298.671 228.849 298.651C228.696 298.628 228.544 298.616 228.391 298.616C228.04 298.616 227.727 298.691 227.452 298.84C227.18 298.986 226.965 299.19 226.805 299.452C226.646 299.71 226.567 300.005 226.567 300.337V305H225.08Z" fill="#B6B6B6"/>
<path d="M279.57 305H277.94L281.604 294.818H283.379L287.043 305H285.412L282.534 296.668H282.454L279.57 305ZM279.844 301.013H285.134V302.305H279.844V301.013ZM288.394 307.864V297.364H289.846V298.602H289.97C290.056 298.442 290.18 298.259 290.343 298.05C290.505 297.841 290.73 297.659 291.019 297.503C291.307 297.344 291.688 297.264 292.162 297.264C292.779 297.264 293.329 297.42 293.813 297.732C294.297 298.043 294.676 298.492 294.951 299.079C295.23 299.665 295.369 300.371 295.369 301.197C295.369 302.022 295.231 302.73 294.956 303.32C294.681 303.906 294.303 304.359 293.823 304.677C293.342 304.992 292.794 305.149 292.177 305.149C291.713 305.149 291.334 305.071 291.039 304.915C290.747 304.76 290.518 304.577 290.353 304.369C290.187 304.16 290.059 303.974 289.97 303.812H289.88V307.864H288.394ZM289.85 301.182C289.85 301.719 289.928 302.189 290.084 302.594C290.24 302.998 290.465 303.315 290.76 303.543C291.055 303.769 291.417 303.881 291.844 303.881C292.288 303.881 292.659 303.764 292.958 303.528C293.256 303.29 293.481 302.967 293.634 302.559C293.79 302.151 293.868 301.692 293.868 301.182C293.868 300.678 293.791 300.226 293.639 299.825C293.49 299.424 293.264 299.107 292.963 298.875C292.664 298.643 292.292 298.527 291.844 298.527C291.413 298.527 291.049 298.638 290.75 298.86C290.455 299.082 290.232 299.392 290.079 299.79C289.927 300.187 289.85 300.652 289.85 301.182ZM297.034 305V297.364H298.471V298.577H298.551C298.69 298.166 298.935 297.843 299.287 297.607C299.641 297.369 300.042 297.249 300.49 297.249C300.583 297.249 300.692 297.253 300.818 297.259C300.947 297.266 301.048 297.274 301.121 297.284V298.706C301.061 298.689 300.955 298.671 300.803 298.651C300.65 298.628 300.498 298.616 300.346 298.616C299.994 298.616 299.681 298.691 299.406 298.84C299.134 298.986 298.919 299.19 298.76 299.452C298.6 299.71 298.521 300.005 298.521 300.337V305H297.034Z" fill="#B6B6B6"/>
<path d="M349.927 294.818H351.792L355.033 302.733H355.152L358.394 294.818H360.258V305H358.797V297.632H358.702L355.699 304.985H354.486L351.483 297.627H351.389V305H349.927V294.818ZM364.595 305.169C364.111 305.169 363.673 305.08 363.282 304.901C362.891 304.718 362.581 304.455 362.352 304.11C362.127 303.765 362.014 303.343 362.014 302.842C362.014 302.411 362.097 302.057 362.263 301.778C362.429 301.5 362.652 301.28 362.934 301.117C363.216 300.955 363.531 300.832 363.879 300.749C364.227 300.666 364.581 300.603 364.943 300.56C365.4 300.507 365.771 300.464 366.056 300.431C366.341 300.395 366.548 300.337 366.678 300.257C366.807 300.178 366.872 300.048 366.872 299.869V299.835C366.872 299.4 366.749 299.064 366.504 298.825C366.262 298.587 365.901 298.467 365.42 298.467C364.919 298.467 364.525 298.578 364.237 298.8C363.952 299.019 363.754 299.263 363.645 299.531L362.248 299.213C362.414 298.749 362.656 298.375 362.974 298.089C363.295 297.801 363.665 297.592 364.083 297.463C364.5 297.33 364.939 297.264 365.4 297.264C365.705 297.264 366.028 297.301 366.369 297.374C366.714 297.443 367.036 297.572 367.334 297.761C367.636 297.95 367.883 298.22 368.075 298.572C368.267 298.92 368.363 299.372 368.363 299.929V305H366.911V303.956H366.852C366.756 304.148 366.611 304.337 366.419 304.523C366.227 304.708 365.98 304.862 365.678 304.985C365.377 305.108 365.016 305.169 364.595 305.169ZM364.918 303.976C365.329 303.976 365.68 303.895 365.972 303.732C366.267 303.57 366.49 303.358 366.643 303.096C366.799 302.831 366.877 302.547 366.877 302.246V301.261C366.824 301.314 366.721 301.364 366.568 301.411C366.419 301.454 366.249 301.492 366.056 301.525C365.864 301.555 365.677 301.583 365.494 301.609C365.312 301.633 365.16 301.652 365.037 301.669C364.749 301.705 364.485 301.767 364.247 301.853C364.011 301.939 363.822 302.063 363.68 302.226C363.541 302.385 363.471 302.597 363.471 302.862C363.471 303.23 363.607 303.509 363.879 303.697C364.151 303.883 364.497 303.976 364.918 303.976ZM371.009 307.864C370.787 307.864 370.585 307.845 370.403 307.809C370.22 307.776 370.085 307.739 369.995 307.7L370.353 306.482C370.625 306.554 370.867 306.586 371.079 306.576C371.291 306.566 371.478 306.487 371.641 306.337C371.806 306.188 371.952 305.945 372.078 305.607L372.262 305.099L369.468 297.364H371.059L372.993 303.29H373.072L375.006 297.364H376.602L373.455 306.019C373.309 306.417 373.124 306.753 372.898 307.028C372.673 307.307 372.405 307.516 372.093 307.655C371.781 307.794 371.42 307.864 371.009 307.864Z" fill="#B6B6B6"/>
<path d="M428.367 294.818H429.898V302.037C429.898 302.69 429.769 303.248 429.51 303.712C429.255 304.176 428.896 304.531 428.432 304.776C427.968 305.018 427.424 305.139 426.801 305.139C426.228 305.139 425.712 305.035 425.255 304.826C424.801 304.617 424.441 304.314 424.176 303.916C423.914 303.515 423.783 303.028 423.783 302.455H425.309C425.309 302.736 425.374 302.98 425.503 303.185C425.636 303.391 425.817 303.552 426.045 303.668C426.277 303.78 426.542 303.837 426.841 303.837C427.166 303.837 427.441 303.769 427.666 303.633C427.895 303.494 428.069 303.29 428.188 303.021C428.307 302.753 428.367 302.425 428.367 302.037V294.818ZM436.852 301.833V297.364H438.344V305H436.882V303.678H436.803C436.627 304.085 436.345 304.425 435.957 304.697C435.573 304.965 435.094 305.099 434.521 305.099C434.03 305.099 433.596 304.992 433.218 304.776C432.844 304.558 432.549 304.234 432.333 303.807C432.121 303.379 432.015 302.851 432.015 302.221V297.364H433.501V302.042C433.501 302.562 433.646 302.977 433.934 303.285C434.222 303.593 434.597 303.747 435.058 303.747C435.336 303.747 435.613 303.678 435.888 303.538C436.166 303.399 436.397 303.189 436.579 302.907C436.764 302.625 436.856 302.267 436.852 301.833ZM441.828 300.466V305H440.341V297.364H441.768V298.607H441.862C442.038 298.202 442.313 297.877 442.688 297.632C443.066 297.387 443.541 297.264 444.115 297.264C444.635 297.264 445.091 297.374 445.482 297.592C445.873 297.808 446.176 298.129 446.392 298.557C446.607 298.984 446.715 299.513 446.715 300.143V305H445.228V300.322C445.228 299.768 445.084 299.336 444.796 299.024C444.507 298.709 444.111 298.552 443.607 298.552C443.263 298.552 442.956 298.626 442.688 298.776C442.423 298.925 442.212 299.143 442.056 299.432C441.904 299.717 441.828 300.062 441.828 300.466Z" fill="#B6B6B6"/>
<path d="M503.807 294.818H505.339V302.037C505.339 302.69 505.209 303.248 504.951 303.712C504.696 304.176 504.336 304.531 503.872 304.776C503.408 305.018 502.864 305.139 502.241 305.139C501.668 305.139 501.153 305.035 500.695 304.826C500.241 304.617 499.882 304.314 499.616 303.916C499.355 303.515 499.224 303.028 499.224 302.455H500.75C500.75 302.736 500.815 302.98 500.944 303.185C501.076 303.391 501.257 303.552 501.486 303.668C501.718 303.78 501.983 303.837 502.281 303.837C502.606 303.837 502.881 303.769 503.106 303.633C503.335 303.494 503.509 303.29 503.628 303.021C503.748 302.753 503.807 302.425 503.807 302.037V294.818ZM512.293 301.833V297.364H513.784V305H512.323V303.678H512.243C512.067 304.085 511.786 304.425 511.398 304.697C511.013 304.965 510.534 305.099 509.961 305.099C509.47 305.099 509.036 304.992 508.658 304.776C508.284 304.558 507.989 304.234 507.774 303.807C507.561 303.379 507.455 302.851 507.455 302.221V297.364H508.942V302.042C508.942 302.562 509.086 302.977 509.374 303.285C509.663 303.593 510.037 303.747 510.498 303.747C510.776 303.747 511.053 303.678 511.328 303.538C511.607 303.399 511.837 303.189 512.019 302.907C512.205 302.625 512.296 302.267 512.293 301.833ZM517.268 294.818V305H515.782V294.818H517.268Z" fill="#B6B6B6"/>
<path d="M570.094 305H568.463L572.127 294.818H573.902L577.566 305H575.936L573.057 296.668H572.977L570.094 305ZM570.367 301.013H575.657V302.305H570.367V301.013ZM583.755 301.833V297.364H585.246V305H583.784V303.678H583.705C583.529 304.085 583.248 304.425 582.86 304.697C582.475 304.965 581.996 305.099 581.423 305.099C580.932 305.099 580.498 304.992 580.12 304.776C579.746 304.558 579.451 304.234 579.235 303.807C579.023 303.379 578.917 302.851 578.917 302.221V297.364H580.404V302.042C580.404 302.562 580.548 302.977 580.836 303.285C581.125 303.593 581.499 303.747 581.96 303.747C582.238 303.747 582.515 303.678 582.79 303.538C583.069 303.399 583.299 303.189 583.481 302.907C583.667 302.625 583.758 302.267 583.755 301.833ZM590.445 308.023C589.839 308.023 589.317 307.943 588.879 307.784C588.445 307.625 588.09 307.415 587.815 307.153C587.54 306.891 587.335 306.604 587.199 306.293L588.476 305.766C588.566 305.911 588.685 306.066 588.834 306.228C588.987 306.394 589.192 306.535 589.451 306.651C589.713 306.767 590.049 306.825 590.46 306.825C591.023 306.825 591.489 306.687 591.857 306.412C592.225 306.14 592.409 305.706 592.409 305.109V303.608H592.314C592.225 303.77 592.096 303.951 591.927 304.15C591.761 304.349 591.532 304.521 591.241 304.667C590.949 304.813 590.569 304.886 590.102 304.886C589.499 304.886 588.955 304.745 588.471 304.463C587.991 304.178 587.61 303.759 587.328 303.205C587.05 302.648 586.91 301.964 586.91 301.152C586.91 300.34 587.048 299.644 587.323 299.064C587.601 298.484 587.983 298.04 588.466 297.732C588.95 297.42 589.499 297.264 590.112 297.264C590.586 297.264 590.969 297.344 591.26 297.503C591.552 297.659 591.779 297.841 591.942 298.05C592.107 298.259 592.235 298.442 592.324 298.602H592.434V297.364H593.89V305.169C593.89 305.825 593.738 306.364 593.433 306.785C593.128 307.206 592.715 307.517 592.195 307.719C591.678 307.922 591.095 308.023 590.445 308.023ZM590.43 303.653C590.858 303.653 591.219 303.553 591.514 303.354C591.812 303.152 592.038 302.864 592.19 302.489C592.346 302.112 592.424 301.659 592.424 301.132C592.424 300.618 592.348 300.166 592.195 299.775C592.043 299.384 591.819 299.079 591.524 298.86C591.229 298.638 590.864 298.527 590.43 298.527C589.983 298.527 589.61 298.643 589.312 298.875C589.013 299.104 588.788 299.415 588.635 299.81C588.486 300.204 588.412 300.645 588.412 301.132C588.412 301.633 588.488 302.072 588.64 302.45C588.793 302.827 589.018 303.122 589.317 303.335C589.618 303.547 589.989 303.653 590.43 303.653Z" fill="#B6B6B6"/>
<path d="M648.238 297.493C648.185 297.022 647.967 296.658 647.582 296.399C647.198 296.137 646.714 296.006 646.13 296.006C645.713 296.006 645.351 296.073 645.047 296.205C644.742 296.335 644.505 296.513 644.336 296.742C644.17 296.968 644.087 297.224 644.087 297.513C644.087 297.755 644.143 297.964 644.256 298.139C644.372 298.315 644.523 298.462 644.708 298.582C644.897 298.698 645.1 298.795 645.315 298.875C645.53 298.951 645.738 299.014 645.936 299.064L646.931 299.322C647.256 299.402 647.589 299.51 647.93 299.646C648.271 299.781 648.588 299.96 648.88 300.183C649.171 300.405 649.407 300.68 649.586 301.008C649.768 301.336 649.859 301.729 649.859 302.186C649.859 302.763 649.71 303.275 649.412 303.722C649.117 304.17 648.687 304.523 648.124 304.781C647.564 305.04 646.886 305.169 646.091 305.169C645.328 305.169 644.669 305.048 644.112 304.806C643.555 304.564 643.119 304.221 642.804 303.777C642.489 303.33 642.315 302.799 642.282 302.186H643.824C643.853 302.554 643.973 302.861 644.181 303.106C644.394 303.348 644.664 303.528 644.992 303.648C645.323 303.764 645.686 303.822 646.081 303.822C646.515 303.822 646.901 303.754 647.239 303.618C647.58 303.479 647.849 303.286 648.044 303.041C648.24 302.793 648.338 302.503 648.338 302.171C648.338 301.87 648.252 301.623 648.079 301.43C647.91 301.238 647.68 301.079 647.388 300.953C647.1 300.827 646.773 300.716 646.409 300.62L645.206 300.292C644.39 300.07 643.744 299.743 643.267 299.312C642.793 298.882 642.556 298.312 642.556 297.602C642.556 297.016 642.715 296.504 643.033 296.066C643.351 295.629 643.782 295.289 644.326 295.047C644.869 294.802 645.482 294.679 646.165 294.679C646.855 294.679 647.463 294.8 647.99 295.042C648.52 295.284 648.938 295.617 649.243 296.041C649.547 296.462 649.707 296.946 649.72 297.493H648.238ZM654.867 305.154C654.114 305.154 653.466 304.993 652.923 304.672C652.383 304.347 651.965 303.891 651.67 303.305C651.378 302.715 651.232 302.024 651.232 301.232C651.232 300.449 651.378 299.76 651.67 299.163C651.965 298.567 652.376 298.101 652.903 297.766C653.433 297.432 654.053 297.264 654.762 297.264C655.193 297.264 655.611 297.335 656.015 297.478C656.419 297.621 656.782 297.844 657.104 298.149C657.425 298.454 657.679 298.85 657.865 299.337C658.05 299.821 658.143 300.41 658.143 301.102V301.629H652.073V300.516H656.686C656.686 300.125 656.607 299.778 656.448 299.477C656.289 299.172 656.065 298.931 655.776 298.756C655.491 298.58 655.157 298.492 654.772 298.492C654.355 298.492 653.99 298.595 653.678 298.8C653.37 299.003 653.132 299.268 652.963 299.596C652.797 299.921 652.714 300.274 652.714 300.655V301.525C652.714 302.035 652.803 302.469 652.982 302.827C653.165 303.185 653.418 303.459 653.743 303.648C654.068 303.833 654.447 303.926 654.882 303.926C655.163 303.926 655.42 303.886 655.652 303.807C655.884 303.724 656.085 303.601 656.254 303.439C656.423 303.277 656.552 303.076 656.642 302.837L658.048 303.091C657.936 303.505 657.734 303.868 657.442 304.18C657.154 304.488 656.791 304.728 656.353 304.901C655.919 305.07 655.423 305.154 654.867 305.154ZM659.792 307.864V297.364H661.244V298.602H661.368C661.454 298.442 661.579 298.259 661.741 298.05C661.904 297.841 662.129 297.659 662.417 297.503C662.706 297.344 663.087 297.264 663.561 297.264C664.177 297.264 664.727 297.42 665.211 297.732C665.695 298.043 666.075 298.492 666.35 299.079C666.628 299.665 666.767 300.371 666.767 301.197C666.767 302.022 666.63 302.73 666.355 303.32C666.08 303.906 665.702 304.359 665.221 304.677C664.741 304.992 664.192 305.149 663.576 305.149C663.112 305.149 662.732 305.071 662.437 304.915C662.145 304.76 661.917 304.577 661.751 304.369C661.585 304.16 661.458 303.974 661.368 303.812H661.279V307.864H659.792ZM661.249 301.182C661.249 301.719 661.327 302.189 661.483 302.594C661.638 302.998 661.864 303.315 662.159 303.543C662.454 303.769 662.815 303.881 663.243 303.881C663.687 303.881 664.058 303.764 664.356 303.528C664.654 303.29 664.88 302.967 665.032 302.559C665.188 302.151 665.266 301.692 665.266 301.182C665.266 300.678 665.19 300.226 665.037 299.825C664.888 299.424 664.663 299.107 664.361 298.875C664.063 298.643 663.69 298.527 663.243 298.527C662.812 298.527 662.447 298.638 662.149 298.86C661.854 299.082 661.63 299.392 661.478 299.79C661.325 300.187 661.249 300.652 661.249 301.182Z" fill="#B6B6B6"/>
<g filter="url(#filter0_d_1491_3202)">
<mask id="path-52-inside-1_1491_3202" fill="white">
<path fill-rule="evenodd" clip-rule="evenodd" d="M267 56C262.582 56 259 59.5817 259 64V102.142L245 116.142L259 130.142V168C259 172.418 262.582 176 267 176H551C555.418 176 559 172.418 559 168V64C559 59.5817 555.418 56 551 56H267Z"/>
</mask>
<path fill-rule="evenodd" clip-rule="evenodd" d="M267 56C262.582 56 259 59.5817 259 64V102.142L245 116.142L259 130.142V168C259 172.418 262.582 176 267 176H551C555.418 176 559 172.418 559 168V64C559 59.5817 555.418 56 551 56H267Z" fill="#2B2B2B"/>
<path d="M259 102.142L259.707 102.849L260 102.556V102.142H259ZM245 116.142L244.293 115.435L243.586 116.142L244.293 116.849L245 116.142ZM259 130.142H260V129.728L259.707 129.435L259 130.142ZM260 64C260 60.134 263.134 57 267 57V55C262.029 55 258 59.0294 258 64H260ZM260 102.142V64H258V102.142H260ZM245.707 116.849L259.707 102.849L258.293 101.435L244.293 115.435L245.707 116.849ZM259.707 129.435L245.707 115.435L244.293 116.849L258.293 130.849L259.707 129.435ZM260 168V130.142H258V168H260ZM267 175C263.134 175 260 171.866 260 168H258C258 172.971 262.029 177 267 177V175ZM551 175H267V177H551V175ZM558 168C558 171.866 554.866 175 551 175V177C555.971 177 560 172.971 560 168H558ZM558 64V168H560V64H558ZM551 57C554.866 57 558 60.134 558 64H560C560 59.0294 555.971 55 551 55V57ZM267 57H551V55H267V57Z" fill="#3A3A3A" mask="url(#path-52-inside-1_1491_3202)"/>
</g>
<g clip-path="url(#clip0_1491_3202)">
<path d="M287 72C288.061 72 289.078 72.4214 289.828 73.1716C290.578 73.9217 291 74.9391 291 76C291 77.0609 290.578 78.0783 289.828 78.8284C289.078 79.5786 288.061 80 287 80C285.939 80 284.921 79.5786 284.171 78.8284C283.421 78.0783 283 77.0609 283 76C283 74.9391 283.421 73.9217 284.171 73.1716C284.921 72.4214 285.939 72 287 72ZM287 82C291.42 82 295 83.79 295 86V88H279V86C279 83.79 282.58 82 287 82Z" fill="#00AD8E"/>
<path d="M305.311 85H303.343L306.927 74.8182H309.204L312.794 85H310.825L308.105 76.9062H308.026L305.311 85ZM305.376 81.0078H310.745V82.4893H305.376V81.0078ZM317.154 85.1491C316.391 85.1491 315.737 84.9818 315.19 84.647C314.646 84.3123 314.227 83.8499 313.932 83.2599C313.64 82.6667 313.495 81.9839 313.495 81.2116C313.495 80.4361 313.644 79.7517 313.942 79.1584C314.24 78.5618 314.661 78.0978 315.205 77.7663C315.752 77.4316 316.398 77.2642 317.144 77.2642C317.764 77.2642 318.312 77.3786 318.789 77.6072C319.27 77.8326 319.653 78.1525 319.938 78.5668C320.223 78.9777 320.385 79.4583 320.425 80.0085H318.705C318.635 79.6406 318.47 79.334 318.208 79.0888C317.949 78.8402 317.603 78.7159 317.169 78.7159C316.801 78.7159 316.478 78.8153 316.199 79.0142C315.921 79.2098 315.704 79.4915 315.548 79.8594C315.395 80.2273 315.319 80.6681 315.319 81.1818C315.319 81.7022 315.395 82.1496 315.548 82.5241C315.7 82.8954 315.914 83.1821 316.189 83.3842C316.468 83.5831 316.794 83.6825 317.169 83.6825C317.434 83.6825 317.671 83.6328 317.88 83.5334C318.092 83.4306 318.269 83.2831 318.412 83.0909C318.554 82.8987 318.652 82.665 318.705 82.3899H320.425C320.382 82.9302 320.223 83.4091 319.948 83.8267C319.673 84.241 319.298 84.5658 318.824 84.8011C318.35 85.0331 317.793 85.1491 317.154 85.1491ZM325.716 77.3636V78.7557H321.326V77.3636H325.716ZM322.41 75.5341H324.21V82.7031C324.21 82.9451 324.246 83.1307 324.319 83.2599C324.395 83.3859 324.495 83.4721 324.617 83.5185C324.74 83.5649 324.876 83.5881 325.025 83.5881C325.138 83.5881 325.24 83.5798 325.333 83.5632C325.429 83.5466 325.502 83.5317 325.552 83.5185L325.855 84.9254C325.759 84.9586 325.622 84.995 325.443 85.0348C325.267 85.0746 325.052 85.0978 324.796 85.1044C324.346 85.1177 323.94 85.0497 323.578 84.9006C323.217 84.7481 322.93 84.5128 322.718 84.1946C322.509 83.8764 322.407 83.4787 322.41 83.0014V75.5341ZM327.221 85V77.3636H329.021V85H327.221ZM328.126 76.2798C327.841 76.2798 327.596 76.1854 327.39 75.9964C327.185 75.8042 327.082 75.5739 327.082 75.3054C327.082 75.0336 327.185 74.8033 327.39 74.6143C327.596 74.4221 327.841 74.326 328.126 74.326C328.414 74.326 328.66 74.4221 328.862 74.6143C329.067 74.8033 329.17 75.0336 329.17 75.3054C329.17 75.5739 329.067 75.8042 328.862 75.9964C328.66 76.1854 328.414 76.2798 328.126 76.2798ZM337.693 77.3636L334.973 85H332.985L330.265 77.3636H332.184L333.939 83.0362H334.019L335.779 77.3636H337.693ZM342.059 85.1491C341.293 85.1491 340.632 84.9901 340.075 84.6719C339.522 84.3504 339.096 83.8963 338.798 83.3097C338.499 82.7197 338.35 82.0253 338.35 81.2266C338.35 80.4411 338.499 79.7517 338.798 79.1584C339.099 78.5618 339.52 78.0978 340.06 77.7663C340.601 77.4316 341.235 77.2642 341.964 77.2642C342.435 77.2642 342.879 77.3404 343.297 77.4929C343.718 77.642 344.089 77.8741 344.411 78.1889C344.735 78.5038 344.991 78.9048 345.176 79.392C345.362 79.8759 345.455 80.4527 345.455 81.1222V81.674H339.195V80.4609H343.729C343.726 80.1162 343.652 79.8097 343.506 79.5412C343.36 79.2694 343.156 79.0556 342.894 78.8999C342.636 78.7441 342.334 78.6662 341.989 78.6662C341.621 78.6662 341.298 78.7557 341.02 78.9347C340.741 79.1103 340.524 79.3423 340.369 79.6307C340.216 79.9157 340.138 80.2289 340.135 80.5703V81.6293C340.135 82.0734 340.216 82.4545 340.379 82.7727C340.541 83.0876 340.768 83.3295 341.06 83.4986C341.351 83.6643 341.693 83.7472 342.084 83.7472C342.346 83.7472 342.583 83.7107 342.795 83.6378C343.007 83.5616 343.191 83.4505 343.347 83.3047C343.502 83.1589 343.62 82.9782 343.7 82.7628L345.38 82.9517C345.274 83.3958 345.072 83.7836 344.773 84.1151C344.478 84.4432 344.101 84.6984 343.64 84.8807C343.179 85.0597 342.652 85.1491 342.059 85.1491ZM350.529 74.8182H352.786L355.809 82.196H355.928L358.951 74.8182H361.208V85H359.438V78.005H359.344L356.53 84.9702H355.208L352.394 77.9901H352.299V85H350.529V74.8182ZM366.518 85.1491C365.752 85.1491 365.091 84.9901 364.534 84.6719C363.981 84.3504 363.555 83.8963 363.257 83.3097C362.958 82.7197 362.809 82.0253 362.809 81.2266C362.809 80.4411 362.958 79.7517 363.257 79.1584C363.558 78.5618 363.979 78.0978 364.519 77.7663C365.06 77.4316 365.694 77.2642 366.423 77.2642C366.894 77.2642 367.338 77.3404 367.756 77.4929C368.177 77.642 368.548 77.8741 368.869 78.1889C369.194 78.5038 369.45 78.9048 369.635 79.392C369.821 79.8759 369.914 80.4527 369.914 81.1222V81.674H363.654V80.4609H368.188C368.185 80.1162 368.11 79.8097 367.965 79.5412C367.819 79.2694 367.615 79.0556 367.353 78.8999C367.095 78.7441 366.793 78.6662 366.448 78.6662C366.08 78.6662 365.757 78.7557 365.479 78.9347C365.2 79.1103 364.983 79.3423 364.828 79.6307C364.675 79.9157 364.597 80.2289 364.594 80.5703V81.6293C364.594 82.0734 364.675 82.4545 364.838 82.7727C365 83.0876 365.227 83.3295 365.519 83.4986C365.81 83.6643 366.152 83.7472 366.543 83.7472C366.805 83.7472 367.042 83.7107 367.254 83.6378C367.466 83.5616 367.65 83.4505 367.806 83.3047C367.961 83.1589 368.079 82.9782 368.159 82.7628L369.839 82.9517C369.733 83.3958 369.531 83.7836 369.232 84.1151C368.937 84.4432 368.56 84.6984 368.099 84.8807C367.638 85.0597 367.111 85.1491 366.518 85.1491ZM371.436 85V77.3636H373.156V78.6612H373.246C373.405 78.2237 373.668 77.8823 374.036 77.6371C374.404 77.3885 374.843 77.2642 375.354 77.2642C375.871 77.2642 376.307 77.3902 376.661 77.642C377.019 77.8906 377.271 78.2304 377.417 78.6612H377.496C377.665 78.237 377.951 77.8989 378.352 77.647C378.756 77.3918 379.235 77.2642 379.788 77.2642C380.491 77.2642 381.064 77.4863 381.509 77.9304C381.953 78.3745 382.175 79.0225 382.175 79.8743V85H380.37V80.1527C380.37 79.6787 380.244 79.3324 379.992 79.1136C379.74 78.8916 379.432 78.7805 379.067 78.7805C378.633 78.7805 378.294 78.9164 378.048 79.1882C377.806 79.4567 377.685 79.8063 377.685 80.2372V85H375.92V80.0781C375.92 79.6837 375.801 79.3688 375.562 79.1335C375.327 78.8982 375.019 78.7805 374.638 78.7805C374.379 78.7805 374.144 78.8468 373.932 78.9794C373.72 79.1087 373.551 79.2926 373.425 79.5312C373.299 79.7666 373.236 80.0417 373.236 80.3565V85H371.436ZM384.08 85V74.8182H385.88V78.6264H385.954C386.047 78.4408 386.178 78.2436 386.347 78.0348C386.516 77.8227 386.745 77.642 387.033 77.4929C387.322 77.3404 387.689 77.2642 388.137 77.2642C388.727 77.2642 389.259 77.415 389.733 77.7166C390.21 78.0149 390.588 78.4574 390.866 79.044C391.148 79.6274 391.289 80.3433 391.289 81.1918C391.289 82.0303 391.151 82.7429 390.876 83.3295C390.601 83.9162 390.227 84.3636 389.753 84.6719C389.279 84.9801 388.742 85.1342 388.142 85.1342C387.704 85.1342 387.341 85.0613 387.053 84.9155C386.765 84.7696 386.533 84.594 386.357 84.3885C386.185 84.1797 386.05 83.9825 385.954 83.7969H385.85V85H384.08ZM385.845 81.1818C385.845 81.6757 385.915 82.1082 386.054 82.4794C386.196 82.8506 386.4 83.1406 386.665 83.3494C386.934 83.5549 387.259 83.6577 387.64 83.6577C388.037 83.6577 388.371 83.5516 388.639 83.3395C388.907 83.1241 389.11 82.8307 389.246 82.4595C389.385 82.085 389.454 81.6591 389.454 81.1818C389.454 80.7079 389.386 80.2869 389.251 79.919C389.115 79.5511 388.912 79.2628 388.644 79.054C388.376 78.8452 388.041 78.7408 387.64 78.7408C387.255 78.7408 386.929 78.8419 386.66 79.044C386.392 79.2462 386.188 79.5296 386.049 79.8942C385.913 80.2588 385.845 80.688 385.845 81.1818ZM396.2 85.1491C395.434 85.1491 394.773 84.9901 394.216 84.6719C393.662 84.3504 393.236 83.8963 392.938 83.3097C392.64 82.7197 392.491 82.0253 392.491 81.2266C392.491 80.4411 392.64 79.7517 392.938 79.1584C393.24 78.5618 393.661 78.0978 394.201 77.7663C394.741 77.4316 395.376 77.2642 396.105 77.2642C396.576 77.2642 397.02 77.3404 397.437 77.4929C397.858 77.642 398.23 77.8741 398.551 78.1889C398.876 78.5038 399.131 78.9048 399.317 79.392C399.502 79.8759 399.595 80.4527 399.595 81.1222V81.674H393.336V80.4609H397.87C397.867 80.1162 397.792 79.8097 397.646 79.5412C397.5 79.2694 397.297 79.0556 397.035 78.8999C396.776 78.7441 396.475 78.6662 396.13 78.6662C395.762 78.6662 395.439 78.7557 395.161 78.9347C394.882 79.1103 394.665 79.3423 394.509 79.6307C394.357 79.9157 394.279 80.2289 394.276 80.5703V81.6293C394.276 82.0734 394.357 82.4545 394.519 82.7727C394.682 83.0876 394.909 83.3295 395.2 83.4986C395.492 83.6643 395.833 83.7472 396.224 83.7472C396.486 83.7472 396.723 83.7107 396.935 83.6378C397.147 83.5616 397.331 83.4505 397.487 83.3047C397.643 83.1589 397.761 82.9782 397.84 82.7628L399.521 82.9517C399.415 83.3958 399.212 83.7836 398.914 84.1151C398.619 84.4432 398.241 84.6984 397.781 84.8807C397.32 85.0597 396.793 85.1491 396.2 85.1491ZM401.118 85V77.3636H402.863V78.6364H402.942C403.081 78.1955 403.32 77.8558 403.658 77.6172C404 77.3752 404.389 77.2543 404.827 77.2543C404.926 77.2543 405.037 77.2592 405.16 77.2692C405.286 77.2758 405.39 77.2874 405.473 77.304V78.9595C405.397 78.933 405.276 78.9098 405.11 78.8899C404.947 78.8667 404.79 78.8551 404.638 78.8551C404.309 78.8551 404.014 78.9264 403.753 79.0689C403.494 79.2081 403.29 79.402 403.141 79.6506C402.992 79.8991 402.917 80.1858 402.917 80.5107V85H401.118ZM412.704 79.3821L411.063 79.5611C411.017 79.3954 410.936 79.2396 410.82 79.0938C410.707 78.9479 410.555 78.8303 410.362 78.7408C410.17 78.6513 409.935 78.6065 409.656 78.6065C409.282 78.6065 408.967 78.6877 408.712 78.8501C408.46 79.0125 408.336 79.223 408.339 79.4815C408.336 79.7036 408.417 79.8842 408.583 80.0234C408.752 80.1626 409.03 80.277 409.418 80.3665L410.72 80.6449C411.443 80.8007 411.98 81.0476 412.331 81.3857C412.686 81.7237 412.865 82.1662 412.868 82.7131C412.865 83.1937 412.724 83.6179 412.445 83.9858C412.17 84.3504 411.788 84.6354 411.297 84.8409C410.807 85.0464 410.243 85.1491 409.607 85.1491C408.672 85.1491 407.92 84.9536 407.35 84.5625C406.78 84.1681 406.44 83.6196 406.33 82.9169L408.085 82.7479C408.165 83.0926 408.334 83.3527 408.592 83.5284C408.851 83.7041 409.187 83.7919 409.602 83.7919C410.029 83.7919 410.372 83.7041 410.631 83.5284C410.893 83.3527 411.024 83.1357 411.024 82.8771C411.024 82.6584 410.939 82.4777 410.77 82.3352C410.604 82.1927 410.346 82.0833 409.994 82.0071L408.692 81.7337C407.959 81.5812 407.418 81.3243 407.066 80.9631C406.715 80.5985 406.541 80.1378 406.544 79.581C406.541 79.1103 406.668 78.7027 406.927 78.358C407.189 78.0099 407.552 77.7415 408.016 77.5526C408.483 77.3603 409.022 77.2642 409.632 77.2642C410.526 77.2642 411.231 77.4548 411.744 77.8359C412.262 78.2171 412.581 78.7325 412.704 79.3821Z" fill="#00AD8E"/>
<path d="M517.535 85.1392C516.819 85.1392 516.183 85.0166 515.626 84.7713C515.073 84.526 514.635 84.1847 514.314 83.7472C513.992 83.3097 513.821 82.8042 513.801 82.2308H515.671C515.687 82.5059 515.779 82.7462 515.944 82.9517C516.11 83.1539 516.33 83.3113 516.605 83.424C516.881 83.5367 517.189 83.593 517.53 83.593C517.895 83.593 518.218 83.5301 518.5 83.4041C518.781 83.2749 519.002 83.0959 519.161 82.8672C519.32 82.6385 519.398 82.375 519.395 82.0767C519.398 81.7685 519.318 81.4967 519.156 81.2614C518.993 81.026 518.758 80.8421 518.45 80.7095C518.145 80.5769 517.777 80.5107 517.346 80.5107H516.446V79.0888H517.346C517.701 79.0888 518.011 79.0275 518.276 78.9048C518.544 78.7822 518.755 78.6098 518.907 78.3878C519.06 78.1624 519.134 77.9022 519.131 77.6072C519.134 77.3189 519.07 77.0687 518.937 76.8565C518.808 76.6411 518.624 76.4737 518.385 76.3544C518.15 76.2351 517.873 76.1754 517.555 76.1754C517.243 76.1754 516.955 76.2318 516.69 76.3445C516.425 76.4571 516.211 76.6179 516.049 76.8267C515.886 77.0322 515.8 77.2775 515.79 77.5625H514.015C514.029 76.9924 514.193 76.492 514.507 76.0611C514.826 75.6269 515.25 75.2888 515.78 75.0469C516.31 74.8016 516.905 74.679 517.565 74.679C518.244 74.679 518.834 74.8066 519.335 75.0618C519.839 75.3137 520.228 75.6534 520.503 76.081C520.778 76.5085 520.916 76.9808 520.916 77.4979C520.919 78.0713 520.75 78.5518 520.409 78.9396C520.071 79.3274 519.627 79.581 519.076 79.7003V79.7798C519.792 79.8793 520.341 80.1444 520.722 80.5753C521.106 81.0028 521.297 81.5348 521.294 82.1712C521.294 82.7412 521.131 83.2517 520.806 83.7024C520.485 84.1499 520.041 84.5012 519.474 84.7564C518.911 85.0116 518.264 85.1392 517.535 85.1392ZM523.373 85L527.703 76.429V76.3594H522.677V74.8182H529.612V76.3942L525.287 85H523.373ZM534.727 85.1392C534.24 85.1359 533.764 85.0514 533.3 84.8857C532.836 84.7166 532.418 84.4432 532.047 84.0653C531.676 83.6842 531.381 83.1787 531.162 82.549C530.944 81.916 530.836 81.1321 530.839 80.1974C530.839 79.3258 530.932 78.5485 531.118 77.8658C531.303 77.183 531.57 76.6063 531.918 76.1357C532.266 75.6617 532.685 75.3004 533.176 75.0518C533.67 74.8033 534.221 74.679 534.831 74.679C535.471 74.679 536.038 74.8049 536.532 75.0568C537.029 75.3087 537.43 75.6534 537.735 76.0909C538.04 76.5251 538.229 77.0156 538.301 77.5625H536.487C536.394 77.1714 536.203 76.8598 535.915 76.6278C535.63 76.3925 535.269 76.2749 534.831 76.2749C534.125 76.2749 533.582 76.5814 533.201 77.1946C532.823 77.8078 532.632 78.6496 532.629 79.7202H532.698C532.861 79.4285 533.071 79.1783 533.33 78.9695C533.588 78.7607 533.88 78.5999 534.205 78.4872C534.533 78.3712 534.879 78.3132 535.244 78.3132C535.841 78.3132 536.376 78.4557 536.85 78.7408C537.327 79.0258 537.705 79.4186 537.983 79.919C538.262 80.4162 538.399 80.9863 538.396 81.6293C538.399 82.2988 538.247 82.9003 537.939 83.4339C537.63 83.9643 537.201 84.3819 536.651 84.6868C536.101 84.9917 535.459 85.1425 534.727 85.1392ZM534.717 83.6477C535.078 83.6477 535.401 83.5599 535.686 83.3842C535.971 83.2086 536.197 82.9716 536.363 82.6733C536.528 82.375 536.609 82.0402 536.606 81.669C536.609 81.3045 536.53 80.9747 536.368 80.6797C536.208 80.3847 535.988 80.151 535.706 79.9787C535.425 79.8063 535.103 79.7202 534.742 79.7202C534.473 79.7202 534.223 79.7715 533.991 79.8743C533.759 79.977 533.557 80.1196 533.385 80.3018C533.212 80.4808 533.076 80.6896 532.977 80.9283C532.881 81.1636 532.831 81.4155 532.828 81.6839C532.831 82.0386 532.914 82.3651 533.076 82.6634C533.239 82.9616 533.462 83.2003 533.748 83.3793C534.033 83.5582 534.356 83.6477 534.717 83.6477ZM541.737 82.6037L541.732 80.4311H542.02L544.765 77.3636H546.868L543.492 81.1222H543.119L541.737 82.6037ZM540.096 85V74.8182H541.896V85H540.096ZM544.889 85L542.403 81.5249L543.616 80.2571L547.042 85H544.889Z" fill="white"/>
</g>
<g clip-path="url(#clip1_1491_3202)">
<path d="M287.142 108C288.203 108 289.22 108.421 289.971 109.172C290.721 109.922 291.142 110.939 291.142 112C291.142 113.061 290.721 114.078 289.971 114.828C289.22 115.579 288.203 116 287.142 116C286.081 116 285.064 115.579 284.314 114.828C283.564 114.078 283.142 113.061 283.142 112C283.142 110.939 283.564 109.922 284.314 109.172C285.064 108.421 286.081 108 287.142 108ZM287.142 118C291.562 118 295.142 119.79 295.142 122V124H279.142V122C279.142 119.79 282.722 118 287.142 118Z" fill="#E74E3A"/>
<path d="M305.991 110.818V121H304.146V110.818H305.991ZM309.708 116.526V121H307.909V113.364H309.629V114.661H309.718C309.894 114.234 310.174 113.894 310.559 113.642C310.946 113.39 311.425 113.264 311.995 113.264C312.522 113.264 312.981 113.377 313.373 113.602C313.767 113.828 314.072 114.154 314.287 114.582C314.506 115.009 314.614 115.528 314.61 116.138V121H312.811V116.416C312.811 115.906 312.678 115.506 312.413 115.218C312.151 114.93 311.788 114.786 311.324 114.786C311.009 114.786 310.729 114.855 310.484 114.994C310.242 115.13 310.051 115.327 309.912 115.586C309.776 115.844 309.708 116.158 309.708 116.526ZM318.637 121.154C318.154 121.154 317.718 121.068 317.33 120.896C316.945 120.72 316.64 120.461 316.415 120.12C316.193 119.779 316.082 119.358 316.082 118.857C316.082 118.426 316.162 118.07 316.321 117.788C316.48 117.507 316.697 117.281 316.972 117.112C317.247 116.943 317.557 116.816 317.902 116.729C318.25 116.64 318.609 116.575 318.98 116.536C319.428 116.489 319.791 116.448 320.069 116.411C320.348 116.371 320.55 116.312 320.676 116.232C320.805 116.149 320.87 116.022 320.87 115.849V115.82C320.87 115.445 320.759 115.155 320.537 114.95C320.315 114.744 319.995 114.641 319.577 114.641C319.136 114.641 318.787 114.737 318.528 114.93C318.273 115.122 318.1 115.349 318.011 115.611L316.331 115.372C316.463 114.908 316.682 114.52 316.987 114.209C317.292 113.894 317.665 113.659 318.105 113.503C318.546 113.344 319.033 113.264 319.567 113.264C319.935 113.264 320.301 113.307 320.666 113.393C321.03 113.48 321.364 113.622 321.665 113.821C321.967 114.017 322.209 114.283 322.391 114.621C322.577 114.96 322.669 115.382 322.669 115.889V121H320.939V119.951H320.88C320.77 120.163 320.616 120.362 320.417 120.548C320.222 120.73 319.975 120.877 319.676 120.99C319.381 121.099 319.035 121.154 318.637 121.154ZM319.105 119.832C319.466 119.832 319.779 119.76 320.044 119.618C320.31 119.472 320.513 119.28 320.656 119.041C320.802 118.803 320.875 118.542 320.875 118.261V117.361C320.818 117.407 320.722 117.45 320.586 117.49C320.454 117.53 320.305 117.565 320.139 117.594C319.973 117.624 319.809 117.651 319.647 117.674C319.484 117.697 319.343 117.717 319.224 117.734C318.956 117.77 318.715 117.83 318.503 117.913C318.291 117.996 318.124 118.112 318.001 118.261C317.878 118.406 317.817 118.595 317.817 118.827C317.817 119.159 317.938 119.409 318.18 119.578C318.422 119.747 318.73 119.832 319.105 119.832ZM327.81 121.149C327.048 121.149 326.393 120.982 325.846 120.647C325.303 120.312 324.883 119.85 324.588 119.26C324.297 118.667 324.151 117.984 324.151 117.212C324.151 116.436 324.3 115.752 324.598 115.158C324.897 114.562 325.318 114.098 325.861 113.766C326.408 113.432 327.054 113.264 327.8 113.264C328.42 113.264 328.968 113.379 329.446 113.607C329.926 113.833 330.309 114.152 330.594 114.567C330.879 114.978 331.042 115.458 331.081 116.009H329.361C329.292 115.641 329.126 115.334 328.864 115.089C328.605 114.84 328.259 114.716 327.825 114.716C327.457 114.716 327.134 114.815 326.855 115.014C326.577 115.21 326.36 115.491 326.204 115.859C326.052 116.227 325.975 116.668 325.975 117.182C325.975 117.702 326.052 118.15 326.204 118.524C326.357 118.895 326.57 119.182 326.846 119.384C327.124 119.583 327.45 119.683 327.825 119.683C328.09 119.683 328.327 119.633 328.536 119.533C328.748 119.431 328.925 119.283 329.068 119.091C329.21 118.899 329.308 118.665 329.361 118.39H331.081C331.038 118.93 330.879 119.409 330.604 119.827C330.329 120.241 329.954 120.566 329.48 120.801C329.006 121.033 328.45 121.149 327.81 121.149ZM336.372 113.364V114.756H331.982V113.364H336.372ZM333.066 111.534H334.866V118.703C334.866 118.945 334.902 119.131 334.975 119.26C335.052 119.386 335.151 119.472 335.274 119.518C335.396 119.565 335.532 119.588 335.681 119.588C335.794 119.588 335.897 119.58 335.99 119.563C336.086 119.547 336.159 119.532 336.208 119.518L336.512 120.925C336.415 120.959 336.278 120.995 336.099 121.035C335.923 121.075 335.708 121.098 335.453 121.104C335.002 121.118 334.596 121.05 334.235 120.901C333.873 120.748 333.587 120.513 333.374 120.195C333.166 119.876 333.063 119.479 333.066 119.001V111.534ZM337.877 121V113.364H339.677V121H337.877ZM338.782 112.28C338.497 112.28 338.252 112.185 338.047 111.996C337.841 111.804 337.738 111.574 337.738 111.305C337.738 111.034 337.841 110.803 338.047 110.614C338.252 110.422 338.497 110.326 338.782 110.326C339.071 110.326 339.316 110.422 339.518 110.614C339.724 110.803 339.826 111.034 339.826 111.305C339.826 111.574 339.724 111.804 339.518 111.996C339.316 112.185 339.071 112.28 338.782 112.28ZM348.349 113.364L345.629 121H343.641L340.921 113.364H342.84L344.595 119.036H344.675L346.435 113.364H348.349ZM352.715 121.149C351.95 121.149 351.288 120.99 350.732 120.672C350.178 120.35 349.752 119.896 349.454 119.31C349.156 118.72 349.006 118.025 349.006 117.227C349.006 116.441 349.156 115.752 349.454 115.158C349.755 114.562 350.176 114.098 350.717 113.766C351.257 113.432 351.892 113.264 352.621 113.264C353.091 113.264 353.536 113.34 353.953 113.493C354.374 113.642 354.745 113.874 355.067 114.189C355.392 114.504 355.647 114.905 355.832 115.392C356.018 115.876 356.111 116.453 356.111 117.122V117.674H349.852V116.461H354.386C354.382 116.116 354.308 115.81 354.162 115.541C354.016 115.269 353.812 115.056 353.55 114.9C353.292 114.744 352.99 114.666 352.646 114.666C352.278 114.666 351.955 114.756 351.676 114.935C351.398 115.11 351.181 115.342 351.025 115.631C350.872 115.916 350.794 116.229 350.791 116.57V117.629C350.791 118.073 350.872 118.455 351.035 118.773C351.197 119.088 351.424 119.33 351.716 119.499C352.008 119.664 352.349 119.747 352.74 119.747C353.002 119.747 353.239 119.711 353.451 119.638C353.663 119.562 353.847 119.451 354.003 119.305C354.159 119.159 354.276 118.978 354.356 118.763L356.036 118.952C355.93 119.396 355.728 119.784 355.43 120.115C355.135 120.443 354.757 120.698 354.296 120.881C353.835 121.06 353.308 121.149 352.715 121.149ZM361.186 110.818H363.443L366.465 118.196H366.585L369.607 110.818H371.865V121H370.095V114.005H370L367.186 120.97H365.864L363.05 113.99H362.955V121H361.186V110.818ZM377.174 121.149C376.409 121.149 375.747 120.99 375.191 120.672C374.637 120.35 374.211 119.896 373.913 119.31C373.615 118.72 373.465 118.025 373.465 117.227C373.465 116.441 373.615 115.752 373.913 115.158C374.214 114.562 374.635 114.098 375.176 113.766C375.716 113.432 376.351 113.264 377.08 113.264C377.55 113.264 377.994 113.34 378.412 113.493C378.833 113.642 379.204 113.874 379.526 114.189C379.851 114.504 380.106 114.905 380.291 115.392C380.477 115.876 380.57 116.453 380.57 117.122V117.674H374.311V116.461H378.845C378.841 116.116 378.767 115.81 378.621 115.541C378.475 115.269 378.271 115.056 378.009 114.9C377.751 114.744 377.449 114.666 377.105 114.666C376.737 114.666 376.414 114.756 376.135 114.935C375.857 115.11 375.64 115.342 375.484 115.631C375.331 115.916 375.253 116.229 375.25 116.57V117.629C375.25 118.073 375.331 118.455 375.494 118.773C375.656 119.088 375.883 119.33 376.175 119.499C376.467 119.664 376.808 119.747 377.199 119.747C377.461 119.747 377.698 119.711 377.91 119.638C378.122 119.562 378.306 119.451 378.462 119.305C378.618 119.159 378.735 118.978 378.815 118.763L380.495 118.952C380.389 119.396 380.187 119.784 379.889 120.115C379.594 120.443 379.216 120.698 378.755 120.881C378.294 121.06 377.767 121.149 377.174 121.149ZM382.092 121V113.364H383.812V114.661H383.902C384.061 114.224 384.325 113.882 384.692 113.637C385.06 113.388 385.5 113.264 386.01 113.264C386.527 113.264 386.963 113.39 387.317 113.642C387.675 113.891 387.927 114.23 388.073 114.661H388.153C388.322 114.237 388.607 113.899 389.008 113.647C389.412 113.392 389.891 113.264 390.445 113.264C391.147 113.264 391.721 113.486 392.165 113.93C392.609 114.375 392.831 115.022 392.831 115.874V121H391.026V116.153C391.026 115.679 390.9 115.332 390.648 115.114C390.397 114.892 390.088 114.781 389.724 114.781C389.29 114.781 388.95 114.916 388.705 115.188C388.463 115.457 388.342 115.806 388.342 116.237V121H386.577V116.078C386.577 115.684 386.457 115.369 386.219 115.134C385.983 114.898 385.675 114.781 385.294 114.781C385.036 114.781 384.8 114.847 384.588 114.979C384.376 115.109 384.207 115.293 384.081 115.531C383.955 115.767 383.892 116.042 383.892 116.357V121H382.092ZM394.736 121V110.818H396.536V114.626H396.611C396.703 114.441 396.834 114.244 397.003 114.035C397.172 113.823 397.401 113.642 397.689 113.493C397.978 113.34 398.346 113.264 398.793 113.264C399.383 113.264 399.915 113.415 400.389 113.717C400.866 114.015 401.244 114.457 401.523 115.044C401.804 115.627 401.945 116.343 401.945 117.192C401.945 118.03 401.808 118.743 401.532 119.33C401.257 119.916 400.883 120.364 400.409 120.672C399.935 120.98 399.398 121.134 398.798 121.134C398.361 121.134 397.998 121.061 397.709 120.915C397.421 120.77 397.189 120.594 397.013 120.388C396.841 120.18 396.707 119.982 396.611 119.797H396.506V121H394.736ZM396.501 117.182C396.501 117.676 396.571 118.108 396.71 118.479C396.853 118.851 397.056 119.141 397.322 119.349C397.59 119.555 397.915 119.658 398.296 119.658C398.694 119.658 399.027 119.552 399.295 119.339C399.564 119.124 399.766 118.831 399.902 118.46C400.041 118.085 400.111 117.659 400.111 117.182C400.111 116.708 400.043 116.287 399.907 115.919C399.771 115.551 399.569 115.263 399.3 115.054C399.032 114.845 398.697 114.741 398.296 114.741C397.912 114.741 397.585 114.842 397.317 115.044C397.048 115.246 396.844 115.53 396.705 115.894C396.569 116.259 396.501 116.688 396.501 117.182ZM406.856 121.149C406.09 121.149 405.429 120.99 404.872 120.672C404.319 120.35 403.893 119.896 403.594 119.31C403.296 118.72 403.147 118.025 403.147 117.227C403.147 116.441 403.296 115.752 403.594 115.158C403.896 114.562 404.317 114.098 404.857 113.766C405.397 113.432 406.032 113.264 406.761 113.264C407.232 113.264 407.676 113.34 408.094 113.493C408.515 113.642 408.886 113.874 409.207 114.189C409.532 114.504 409.787 114.905 409.973 115.392C410.159 115.876 410.251 116.453 410.251 117.122V117.674H403.992V116.461H408.526C408.523 116.116 408.448 115.81 408.303 115.541C408.157 115.269 407.953 115.056 407.691 114.9C407.433 114.744 407.131 114.666 406.786 114.666C406.418 114.666 406.095 114.756 405.817 114.935C405.538 115.11 405.321 115.342 405.165 115.631C405.013 115.916 404.935 116.229 404.932 116.57V117.629C404.932 118.073 405.013 118.455 405.175 118.773C405.338 119.088 405.565 119.33 405.857 119.499C406.148 119.664 406.49 119.747 406.881 119.747C407.143 119.747 407.379 119.711 407.592 119.638C407.804 119.562 407.988 119.451 408.143 119.305C408.299 119.159 408.417 118.978 408.496 118.763L410.177 118.952C410.071 119.396 409.869 119.784 409.57 120.115C409.275 120.443 408.897 120.698 408.437 120.881C407.976 121.06 407.449 121.149 406.856 121.149ZM411.774 121V113.364H413.519V114.636H413.599C413.738 114.196 413.976 113.856 414.314 113.617C414.656 113.375 415.045 113.254 415.483 113.254C415.582 113.254 415.693 113.259 415.816 113.269C415.942 113.276 416.046 113.287 416.129 113.304V114.96C416.053 114.933 415.932 114.91 415.766 114.89C415.604 114.867 415.446 114.855 415.294 114.855C414.966 114.855 414.671 114.926 414.409 115.069C414.15 115.208 413.947 115.402 413.797 115.651C413.648 115.899 413.574 116.186 413.574 116.511V121H411.774ZM423.36 115.382L421.72 115.561C421.673 115.395 421.592 115.24 421.476 115.094C421.363 114.948 421.211 114.83 421.019 114.741C420.826 114.651 420.591 114.607 420.313 114.607C419.938 114.607 419.623 114.688 419.368 114.85C419.116 115.013 418.992 115.223 418.995 115.482C418.992 115.704 419.073 115.884 419.239 116.023C419.408 116.163 419.686 116.277 420.074 116.366L421.377 116.645C422.099 116.801 422.636 117.048 422.987 117.386C423.342 117.724 423.521 118.166 423.524 118.713C423.521 119.194 423.38 119.618 423.102 119.986C422.827 120.35 422.444 120.635 421.953 120.841C421.463 121.046 420.899 121.149 420.263 121.149C419.328 121.149 418.576 120.954 418.006 120.562C417.436 120.168 417.096 119.62 416.987 118.917L418.742 118.748C418.821 119.093 418.99 119.353 419.249 119.528C419.507 119.704 419.844 119.792 420.258 119.792C420.686 119.792 421.029 119.704 421.287 119.528C421.549 119.353 421.68 119.136 421.68 118.877C421.68 118.658 421.595 118.478 421.426 118.335C421.261 118.193 421.002 118.083 420.651 118.007L419.348 117.734C418.616 117.581 418.074 117.324 417.722 116.963C417.371 116.598 417.197 116.138 417.2 115.581C417.197 115.11 417.325 114.703 417.583 114.358C417.845 114.01 418.208 113.741 418.672 113.553C419.139 113.36 419.678 113.264 420.288 113.264C421.183 113.264 421.887 113.455 422.401 113.836C422.918 114.217 423.238 114.732 423.36 115.382Z" fill="#E74E3A"/>
<path d="M517.535 121.139C516.819 121.139 516.183 121.017 515.626 120.771C515.073 120.526 514.635 120.185 514.314 119.747C513.992 119.31 513.821 118.804 513.801 118.231H515.671C515.687 118.506 515.779 118.746 515.944 118.952C516.11 119.154 516.33 119.311 516.605 119.424C516.881 119.537 517.189 119.593 517.53 119.593C517.895 119.593 518.218 119.53 518.5 119.404C518.781 119.275 519.002 119.096 519.161 118.867C519.32 118.638 519.398 118.375 519.395 118.077C519.398 117.768 519.318 117.497 519.156 117.261C518.993 117.026 518.758 116.842 518.45 116.71C518.145 116.577 517.777 116.511 517.346 116.511H516.446V115.089H517.346C517.701 115.089 518.011 115.027 518.276 114.905C518.544 114.782 518.755 114.61 518.907 114.388C519.06 114.162 519.134 113.902 519.131 113.607C519.134 113.319 519.07 113.069 518.937 112.857C518.808 112.641 518.624 112.474 518.385 112.354C518.15 112.235 517.873 112.175 517.555 112.175C517.243 112.175 516.955 112.232 516.69 112.344C516.425 112.457 516.211 112.618 516.049 112.827C515.886 113.032 515.8 113.277 515.79 113.562H514.015C514.029 112.992 514.193 112.492 514.507 112.061C514.826 111.627 515.25 111.289 515.78 111.047C516.31 110.802 516.905 110.679 517.565 110.679C518.244 110.679 518.834 110.807 519.335 111.062C519.839 111.314 520.228 111.653 520.503 112.081C520.778 112.509 520.916 112.981 520.916 113.498C520.919 114.071 520.75 114.552 520.409 114.94C520.071 115.327 519.627 115.581 519.076 115.7V115.78C519.792 115.879 520.341 116.144 520.722 116.575C521.106 117.003 521.297 117.535 521.294 118.171C521.294 118.741 521.131 119.252 520.806 119.702C520.485 120.15 520.041 120.501 519.474 120.756C518.911 121.012 518.264 121.139 517.535 121.139ZM523.373 121L527.703 112.429V112.359H522.677V110.818H529.612V112.394L525.287 121H523.373ZM534.727 121.139C534.24 121.136 533.764 121.051 533.3 120.886C532.836 120.717 532.418 120.443 532.047 120.065C531.676 119.684 531.381 119.179 531.162 118.549C530.944 117.916 530.836 117.132 530.839 116.197C530.839 115.326 530.932 114.549 531.118 113.866C531.303 113.183 531.57 112.606 531.918 112.136C532.266 111.662 532.685 111.3 533.176 111.052C533.67 110.803 534.221 110.679 534.831 110.679C535.471 110.679 536.038 110.805 536.532 111.057C537.029 111.309 537.43 111.653 537.735 112.091C538.04 112.525 538.229 113.016 538.301 113.562H536.487C536.394 113.171 536.203 112.86 535.915 112.628C535.63 112.393 535.269 112.275 534.831 112.275C534.125 112.275 533.582 112.581 533.201 113.195C532.823 113.808 532.632 114.65 532.629 115.72H532.698C532.861 115.429 533.071 115.178 533.33 114.969C533.588 114.761 533.88 114.6 534.205 114.487C534.533 114.371 534.879 114.313 535.244 114.313C535.841 114.313 536.376 114.456 536.85 114.741C537.327 115.026 537.705 115.419 537.983 115.919C538.262 116.416 538.399 116.986 538.396 117.629C538.399 118.299 538.247 118.9 537.939 119.434C537.63 119.964 537.201 120.382 536.651 120.687C536.101 120.992 535.459 121.143 534.727 121.139ZM534.717 119.648C535.078 119.648 535.401 119.56 535.686 119.384C535.971 119.209 536.197 118.972 536.363 118.673C536.528 118.375 536.609 118.04 536.606 117.669C536.609 117.304 536.53 116.975 536.368 116.68C536.208 116.385 535.988 116.151 535.706 115.979C535.425 115.806 535.103 115.72 534.742 115.72C534.473 115.72 534.223 115.772 533.991 115.874C533.759 115.977 533.557 116.12 533.385 116.302C533.212 116.481 533.076 116.69 532.977 116.928C532.881 117.164 532.831 117.415 532.828 117.684C532.831 118.039 532.914 118.365 533.076 118.663C533.239 118.962 533.462 119.2 533.748 119.379C534.033 119.558 534.356 119.648 534.717 119.648ZM541.737 118.604L541.732 116.431H542.02L544.765 113.364H546.868L543.492 117.122H543.119L541.737 118.604ZM540.096 121V110.818H541.896V121H540.096ZM544.889 121L542.403 117.525L543.616 116.257L547.042 121H544.889Z" fill="white"/>
</g>
<g clip-path="url(#clip2_1491_3202)">
<path d="M287.142 144C288.203 144 289.22 144.421 289.971 145.172C290.721 145.922 291.142 146.939 291.142 148C291.142 149.061 290.721 150.078 289.971 150.828C289.22 151.579 288.203 152 287.142 152C286.081 152 285.064 151.579 284.314 150.828C283.564 150.078 283.142 149.061 283.142 148C283.142 146.939 283.564 145.922 284.314 145.172C285.064 144.421 286.081 144 287.142 144ZM287.142 154C291.562 154 295.142 155.79 295.142 158V160H279.142V158C279.142 155.79 282.722 154 287.142 154Z" fill="#E7783A"/>
<path d="M310.565 146.818H312.409V153.47C312.409 154.199 312.237 154.841 311.892 155.394C311.551 155.948 311.07 156.38 310.45 156.692C309.831 157 309.106 157.154 308.278 157.154C307.446 157.154 306.72 157 306.1 156.692C305.481 156.38 305 155.948 304.659 155.394C304.317 154.841 304.146 154.199 304.146 153.47V146.818H305.991V153.316C305.991 153.74 306.084 154.118 306.269 154.45C306.458 154.781 306.723 155.041 307.065 155.23C307.406 155.416 307.811 155.509 308.278 155.509C308.745 155.509 309.15 155.416 309.491 155.23C309.836 155.041 310.101 154.781 310.286 154.45C310.472 154.118 310.565 153.74 310.565 153.316V146.818ZM314.335 159.864V149.364H316.104V150.626H316.209C316.302 150.441 316.433 150.244 316.602 150.035C316.771 149.823 316.999 149.642 317.288 149.493C317.576 149.34 317.944 149.264 318.391 149.264C318.981 149.264 319.513 149.415 319.987 149.717C320.464 150.015 320.842 150.457 321.121 151.044C321.402 151.627 321.543 152.343 321.543 153.192C321.543 154.03 321.406 154.743 321.131 155.33C320.856 155.916 320.481 156.364 320.007 156.672C319.533 156.98 318.996 157.134 318.396 157.134C317.959 157.134 317.596 157.061 317.308 156.915C317.019 156.77 316.787 156.594 316.611 156.388C316.439 156.18 316.305 155.982 316.209 155.797H316.134V159.864H314.335ZM316.099 153.182C316.099 153.676 316.169 154.108 316.308 154.479C316.451 154.851 316.655 155.141 316.92 155.349C317.188 155.555 317.513 155.658 317.894 155.658C318.292 155.658 318.625 155.552 318.893 155.339C319.162 155.124 319.364 154.831 319.5 154.46C319.639 154.085 319.709 153.659 319.709 153.182C319.709 152.708 319.641 152.287 319.505 151.919C319.369 151.551 319.167 151.263 318.898 151.054C318.63 150.845 318.295 150.741 317.894 150.741C317.51 150.741 317.183 150.842 316.915 151.044C316.646 151.246 316.442 151.53 316.303 151.894C316.167 152.259 316.099 152.688 316.099 153.182ZM326.415 157.149C325.653 157.149 324.999 156.982 324.452 156.647C323.908 156.312 323.489 155.85 323.194 155.26C322.902 154.667 322.756 153.984 322.756 153.212C322.756 152.436 322.906 151.752 323.204 151.158C323.502 150.562 323.923 150.098 324.467 149.766C325.013 149.432 325.66 149.264 326.406 149.264C327.025 149.264 327.574 149.379 328.051 149.607C328.532 149.833 328.915 150.152 329.2 150.567C329.485 150.978 329.647 151.458 329.687 152.009H327.967C327.897 151.641 327.731 151.334 327.469 151.089C327.211 150.84 326.865 150.716 326.43 150.716C326.062 150.716 325.739 150.815 325.461 151.014C325.183 151.21 324.965 151.491 324.81 151.859C324.657 152.227 324.581 152.668 324.581 153.182C324.581 153.702 324.657 154.15 324.81 154.524C324.962 154.895 325.176 155.182 325.451 155.384C325.729 155.583 326.056 155.683 326.43 155.683C326.696 155.683 326.933 155.633 327.141 155.533C327.353 155.431 327.531 155.283 327.673 155.091C327.816 154.899 327.914 154.665 327.967 154.39H329.687C329.644 154.93 329.485 155.409 329.21 155.827C328.934 156.241 328.56 156.566 328.086 156.801C327.612 157.033 327.055 157.149 326.415 157.149ZM334.496 157.149C333.75 157.149 333.104 156.985 332.557 156.657C332.01 156.329 331.586 155.87 331.284 155.28C330.986 154.69 330.836 154 330.836 153.212C330.836 152.423 330.986 151.732 331.284 151.138C331.586 150.545 332.01 150.085 332.557 149.756C333.104 149.428 333.75 149.264 334.496 149.264C335.241 149.264 335.888 149.428 336.434 149.756C336.981 150.085 337.404 150.545 337.702 151.138C338.004 151.732 338.155 152.423 338.155 153.212C338.155 154 338.004 154.69 337.702 155.28C337.404 155.87 336.981 156.329 336.434 156.657C335.888 156.985 335.241 157.149 334.496 157.149ZM334.505 155.707C334.91 155.707 335.248 155.596 335.52 155.374C335.791 155.149 335.994 154.847 336.126 154.469C336.262 154.092 336.33 153.671 336.33 153.207C336.33 152.739 336.262 152.317 336.126 151.939C335.994 151.558 335.791 151.254 335.52 151.029C335.248 150.804 334.91 150.691 334.505 150.691C334.091 150.691 333.746 150.804 333.471 151.029C333.2 151.254 332.996 151.558 332.86 151.939C332.727 152.317 332.661 152.739 332.661 153.207C332.661 153.671 332.727 154.092 332.86 154.469C332.996 154.847 333.2 155.149 333.471 155.374C333.746 155.596 334.091 155.707 334.505 155.707ZM339.682 157V149.364H341.402V150.661H341.492C341.651 150.224 341.914 149.882 342.282 149.637C342.65 149.388 343.089 149.264 343.6 149.264C344.117 149.264 344.553 149.39 344.907 149.642C345.265 149.891 345.517 150.23 345.663 150.661H345.743C345.912 150.237 346.197 149.899 346.598 149.647C347.002 149.392 347.481 149.264 348.034 149.264C348.737 149.264 349.31 149.486 349.755 149.93C350.199 150.375 350.421 151.022 350.421 151.874V157H348.616V152.153C348.616 151.679 348.49 151.332 348.238 151.114C347.986 150.892 347.678 150.781 347.314 150.781C346.879 150.781 346.54 150.916 346.294 151.188C346.052 151.457 345.931 151.806 345.931 152.237V157H344.167V152.078C344.167 151.684 344.047 151.369 343.809 151.134C343.573 150.898 343.265 150.781 342.884 150.781C342.625 150.781 342.39 150.847 342.178 150.979C341.966 151.109 341.797 151.293 341.671 151.531C341.545 151.767 341.482 152.042 341.482 152.357V157H339.682ZM352.247 157V149.364H354.046V157H352.247ZM353.151 148.28C352.866 148.28 352.621 148.185 352.416 147.996C352.21 147.804 352.107 147.574 352.107 147.305C352.107 147.034 352.21 146.803 352.416 146.614C352.621 146.422 352.866 146.326 353.151 146.326C353.44 146.326 353.685 146.422 353.887 146.614C354.093 146.803 354.195 147.034 354.195 147.305C354.195 147.574 354.093 147.804 353.887 147.996C353.685 148.185 353.44 148.28 353.151 148.28ZM357.697 152.526V157H355.897V149.364H357.617V150.661H357.707C357.882 150.234 358.162 149.894 358.547 149.642C358.935 149.39 359.414 149.264 359.984 149.264C360.511 149.264 360.97 149.377 361.361 149.602C361.755 149.828 362.06 150.154 362.276 150.582C362.494 151.009 362.602 151.528 362.599 152.138V157H360.799V152.416C360.799 151.906 360.666 151.506 360.401 151.218C360.139 150.93 359.777 150.786 359.312 150.786C358.998 150.786 358.718 150.855 358.472 150.994C358.23 151.13 358.04 151.327 357.901 151.586C357.765 151.844 357.697 152.158 357.697 152.526ZM367.749 160.023C367.103 160.023 366.548 159.935 366.084 159.759C365.62 159.587 365.247 159.355 364.965 159.063C364.683 158.772 364.488 158.448 364.379 158.094L365.999 157.701C366.072 157.85 366.178 157.998 366.317 158.143C366.457 158.293 366.644 158.415 366.879 158.511C367.118 158.611 367.418 158.661 367.779 158.661C368.29 158.661 368.712 158.536 369.047 158.288C369.382 158.042 369.549 157.638 369.549 157.075V155.628H369.46C369.367 155.813 369.231 156.004 369.052 156.2C368.876 156.395 368.643 156.559 368.351 156.692C368.062 156.824 367.7 156.891 367.262 156.891C366.675 156.891 366.143 156.753 365.666 156.478C365.192 156.2 364.814 155.785 364.533 155.235C364.254 154.682 364.115 153.989 364.115 153.157C364.115 152.318 364.254 151.611 364.533 151.034C364.814 150.454 365.194 150.015 365.671 149.717C366.148 149.415 366.68 149.264 367.267 149.264C367.714 149.264 368.082 149.34 368.371 149.493C368.662 149.642 368.894 149.823 369.067 150.035C369.239 150.244 369.37 150.441 369.46 150.626H369.559V149.364H371.334V157.124C371.334 157.777 371.178 158.317 370.866 158.745C370.555 159.173 370.129 159.492 369.589 159.705C369.049 159.917 368.435 160.023 367.749 160.023ZM367.764 155.479C368.145 155.479 368.47 155.386 368.739 155.2C369.007 155.015 369.211 154.748 369.35 154.4C369.489 154.052 369.559 153.634 369.559 153.147C369.559 152.666 369.489 152.246 369.35 151.884C369.214 151.523 369.012 151.243 368.744 151.044C368.478 150.842 368.152 150.741 367.764 150.741C367.363 150.741 367.028 150.845 366.76 151.054C366.491 151.263 366.289 151.549 366.153 151.914C366.018 152.275 365.95 152.686 365.95 153.147C365.95 153.614 366.018 154.024 366.153 154.375C366.293 154.723 366.496 154.995 366.765 155.19C367.037 155.383 367.37 155.479 367.764 155.479ZM376.73 146.818H378.988L382.01 154.196H382.13L385.152 146.818H387.409V157H385.64V150.005H385.545L382.731 156.97H381.409L378.595 149.99H378.5V157H376.73V146.818ZM392.719 157.149C391.953 157.149 391.292 156.99 390.735 156.672C390.182 156.35 389.756 155.896 389.458 155.31C389.159 154.72 389.01 154.025 389.01 153.227C389.01 152.441 389.159 151.752 389.458 151.158C389.759 150.562 390.18 150.098 390.721 149.766C391.261 149.432 391.895 149.264 392.625 149.264C393.095 149.264 393.539 149.34 393.957 149.493C394.378 149.642 394.749 149.874 395.071 150.189C395.395 150.504 395.651 150.905 395.836 151.392C396.022 151.876 396.115 152.453 396.115 153.122V153.674H389.855V152.461H394.39C394.386 152.116 394.312 151.81 394.166 151.541C394.02 151.269 393.816 151.056 393.554 150.9C393.296 150.744 392.994 150.666 392.649 150.666C392.282 150.666 391.958 150.756 391.68 150.935C391.402 151.11 391.185 151.342 391.029 151.631C390.876 151.916 390.798 152.229 390.795 152.57V153.629C390.795 154.073 390.876 154.455 391.039 154.773C391.201 155.088 391.428 155.33 391.72 155.499C392.011 155.664 392.353 155.747 392.744 155.747C393.006 155.747 393.243 155.711 393.455 155.638C393.667 155.562 393.851 155.451 394.007 155.305C394.163 155.159 394.28 154.978 394.36 154.763L396.04 154.952C395.934 155.396 395.732 155.784 395.434 156.115C395.139 156.443 394.761 156.698 394.3 156.881C393.839 157.06 393.312 157.149 392.719 157.149ZM397.637 157V149.364H399.357V150.661H399.447C399.606 150.224 399.869 149.882 400.237 149.637C400.605 149.388 401.044 149.264 401.555 149.264C402.072 149.264 402.508 149.39 402.862 149.642C403.22 149.891 403.472 150.23 403.618 150.661H403.698C403.867 150.237 404.152 149.899 404.553 149.647C404.957 149.392 405.436 149.264 405.99 149.264C406.692 149.264 407.266 149.486 407.71 149.93C408.154 150.375 408.376 151.022 408.376 151.874V157H406.571V152.153C406.571 151.679 406.445 151.332 406.193 151.114C405.941 150.892 405.633 150.781 405.269 150.781C404.834 150.781 404.495 150.916 404.249 151.188C404.008 151.457 403.887 151.806 403.887 152.237V157H402.122V152.078C402.122 151.684 402.002 151.369 401.764 151.134C401.528 150.898 401.22 150.781 400.839 150.781C400.58 150.781 400.345 150.847 400.133 150.979C399.921 151.109 399.752 151.293 399.626 151.531C399.5 151.767 399.437 152.042 399.437 152.357V157H397.637ZM410.281 157V146.818H412.081V150.626H412.156C412.248 150.441 412.379 150.244 412.548 150.035C412.717 149.823 412.946 149.642 413.234 149.493C413.523 149.34 413.891 149.264 414.338 149.264C414.928 149.264 415.46 149.415 415.934 149.717C416.411 150.015 416.789 150.457 417.067 151.044C417.349 151.627 417.49 152.343 417.49 153.192C417.49 154.03 417.352 154.743 417.077 155.33C416.802 155.916 416.428 156.364 415.954 156.672C415.48 156.98 414.943 157.134 414.343 157.134C413.906 157.134 413.543 157.061 413.254 156.915C412.966 156.77 412.734 156.594 412.558 156.388C412.386 156.18 412.252 155.982 412.156 155.797H412.051V157H410.281ZM412.046 153.182C412.046 153.676 412.116 154.108 412.255 154.479C412.397 154.851 412.601 155.141 412.866 155.349C413.135 155.555 413.46 155.658 413.841 155.658C414.239 155.658 414.572 155.552 414.84 155.339C415.109 155.124 415.311 154.831 415.447 154.46C415.586 154.085 415.656 153.659 415.656 153.182C415.656 152.708 415.588 152.287 415.452 151.919C415.316 151.551 415.114 151.263 414.845 151.054C414.577 150.845 414.242 150.741 413.841 150.741C413.456 150.741 413.13 150.842 412.861 151.044C412.593 151.246 412.389 151.53 412.25 151.894C412.114 152.259 412.046 152.688 412.046 153.182ZM422.401 157.149C421.635 157.149 420.974 156.99 420.417 156.672C419.864 156.35 419.438 155.896 419.139 155.31C418.841 154.72 418.692 154.025 418.692 153.227C418.692 152.441 418.841 151.752 419.139 151.158C419.441 150.562 419.862 150.098 420.402 149.766C420.942 149.432 421.577 149.264 422.306 149.264C422.777 149.264 423.221 149.34 423.639 149.493C424.06 149.642 424.431 149.874 424.752 150.189C425.077 150.504 425.332 150.905 425.518 151.392C425.704 151.876 425.796 152.453 425.796 153.122V153.674H419.537V152.461H424.071C424.068 152.116 423.993 151.81 423.847 151.541C423.702 151.269 423.498 151.056 423.236 150.9C422.977 150.744 422.676 150.666 422.331 150.666C421.963 150.666 421.64 150.756 421.362 150.935C421.083 151.11 420.866 151.342 420.71 151.631C420.558 151.916 420.48 152.229 420.477 152.57V153.629C420.477 154.073 420.558 154.455 420.72 154.773C420.883 155.088 421.11 155.33 421.401 155.499C421.693 155.664 422.034 155.747 422.426 155.747C422.687 155.747 422.924 155.711 423.137 155.638C423.349 155.562 423.533 155.451 423.688 155.305C423.844 155.159 423.962 154.978 424.041 154.763L425.722 154.952C425.616 155.396 425.414 155.784 425.115 156.115C424.82 156.443 424.442 156.698 423.982 156.881C423.521 157.06 422.994 157.149 422.401 157.149ZM427.319 157V149.364H429.064V150.636H429.143C429.283 150.196 429.521 149.856 429.859 149.617C430.201 149.375 430.59 149.254 431.028 149.254C431.127 149.254 431.238 149.259 431.361 149.269C431.487 149.276 431.591 149.287 431.674 149.304V150.96C431.598 150.933 431.477 150.91 431.311 150.89C431.149 150.867 430.991 150.855 430.839 150.855C430.511 150.855 430.216 150.926 429.954 151.069C429.695 151.208 429.491 151.402 429.342 151.651C429.193 151.899 429.119 152.186 429.119 152.511V157H427.319ZM438.905 151.382L437.265 151.561C437.218 151.395 437.137 151.24 437.021 151.094C436.908 150.948 436.756 150.83 436.564 150.741C436.371 150.651 436.136 150.607 435.858 150.607C435.483 150.607 435.168 150.688 434.913 150.85C434.661 151.013 434.537 151.223 434.54 151.482C434.537 151.704 434.618 151.884 434.784 152.023C434.953 152.163 435.231 152.277 435.619 152.366L436.922 152.645C437.644 152.801 438.181 153.048 438.532 153.386C438.887 153.724 439.066 154.166 439.069 154.713C439.066 155.194 438.925 155.618 438.647 155.986C438.372 156.35 437.989 156.635 437.498 156.841C437.008 157.046 436.444 157.149 435.808 157.149C434.873 157.149 434.121 156.954 433.551 156.562C432.981 156.168 432.641 155.62 432.532 154.917L434.287 154.748C434.366 155.093 434.535 155.353 434.794 155.528C435.052 155.704 435.389 155.792 435.803 155.792C436.23 155.792 436.573 155.704 436.832 155.528C437.094 155.353 437.225 155.136 437.225 154.877C437.225 154.658 437.14 154.478 436.971 154.335C436.806 154.193 436.547 154.083 436.196 154.007L434.893 153.734C434.161 153.581 433.619 153.324 433.267 152.963C432.916 152.598 432.742 152.138 432.745 151.581C432.742 151.11 432.87 150.703 433.128 150.358C433.39 150.01 433.753 149.741 434.217 149.553C434.684 149.36 435.223 149.264 435.833 149.264C436.728 149.264 437.432 149.455 437.946 149.836C438.463 150.217 438.783 150.732 438.905 151.382Z" fill="#E7783A"/>
<path d="M517.535 157.139C516.819 157.139 516.183 157.017 515.626 156.771C515.073 156.526 514.635 156.185 514.314 155.747C513.992 155.31 513.821 154.804 513.801 154.231H515.671C515.687 154.506 515.779 154.746 515.944 154.952C516.11 155.154 516.33 155.311 516.605 155.424C516.881 155.537 517.189 155.593 517.53 155.593C517.895 155.593 518.218 155.53 518.5 155.404C518.781 155.275 519.002 155.096 519.161 154.867C519.32 154.638 519.398 154.375 519.395 154.077C519.398 153.768 519.318 153.497 519.156 153.261C518.993 153.026 518.758 152.842 518.45 152.71C518.145 152.577 517.777 152.511 517.346 152.511H516.446V151.089H517.346C517.701 151.089 518.011 151.027 518.276 150.905C518.544 150.782 518.755 150.61 518.907 150.388C519.06 150.162 519.134 149.902 519.131 149.607C519.134 149.319 519.07 149.069 518.937 148.857C518.808 148.641 518.624 148.474 518.385 148.354C518.15 148.235 517.873 148.175 517.555 148.175C517.243 148.175 516.955 148.232 516.69 148.344C516.425 148.457 516.211 148.618 516.049 148.827C515.886 149.032 515.8 149.277 515.79 149.562H514.015C514.029 148.992 514.193 148.492 514.507 148.061C514.826 147.627 515.25 147.289 515.78 147.047C516.31 146.802 516.905 146.679 517.565 146.679C518.244 146.679 518.834 146.807 519.335 147.062C519.839 147.314 520.228 147.653 520.503 148.081C520.778 148.509 520.916 148.981 520.916 149.498C520.919 150.071 520.75 150.552 520.409 150.94C520.071 151.327 519.627 151.581 519.076 151.7V151.78C519.792 151.879 520.341 152.144 520.722 152.575C521.106 153.003 521.297 153.535 521.294 154.171C521.294 154.741 521.131 155.252 520.806 155.702C520.485 156.15 520.041 156.501 519.474 156.756C518.911 157.012 518.264 157.139 517.535 157.139ZM523.373 157L527.703 148.429V148.359H522.677V146.818H529.612V148.394L525.287 157H523.373ZM534.727 157.139C534.24 157.136 533.764 157.051 533.3 156.886C532.836 156.717 532.418 156.443 532.047 156.065C531.676 155.684 531.381 155.179 531.162 154.549C530.944 153.916 530.836 153.132 530.839 152.197C530.839 151.326 530.932 150.549 531.118 149.866C531.303 149.183 531.57 148.606 531.918 148.136C532.266 147.662 532.685 147.3 533.176 147.052C533.67 146.803 534.221 146.679 534.831 146.679C535.471 146.679 536.038 146.805 536.532 147.057C537.029 147.309 537.43 147.653 537.735 148.091C538.04 148.525 538.229 149.016 538.301 149.562H536.487C536.394 149.171 536.203 148.86 535.915 148.628C535.63 148.393 535.269 148.275 534.831 148.275C534.125 148.275 533.582 148.581 533.201 149.195C532.823 149.808 532.632 150.65 532.629 151.72H532.698C532.861 151.429 533.071 151.178 533.33 150.969C533.588 150.761 533.88 150.6 534.205 150.487C534.533 150.371 534.879 150.313 535.244 150.313C535.841 150.313 536.376 150.456 536.85 150.741C537.327 151.026 537.705 151.419 537.983 151.919C538.262 152.416 538.399 152.986 538.396 153.629C538.399 154.299 538.247 154.9 537.939 155.434C537.63 155.964 537.201 156.382 536.651 156.687C536.101 156.992 535.459 157.143 534.727 157.139ZM534.717 155.648C535.078 155.648 535.401 155.56 535.686 155.384C535.971 155.209 536.197 154.972 536.363 154.673C536.528 154.375 536.609 154.04 536.606 153.669C536.609 153.304 536.53 152.975 536.368 152.68C536.208 152.385 535.988 152.151 535.706 151.979C535.425 151.806 535.103 151.72 534.742 151.72C534.473 151.72 534.223 151.772 533.991 151.874C533.759 151.977 533.557 152.12 533.385 152.302C533.212 152.481 533.076 152.69 532.977 152.928C532.881 153.164 532.831 153.415 532.828 153.684C532.831 154.039 532.914 154.365 533.076 154.663C533.239 154.962 533.462 155.2 533.748 155.379C534.033 155.558 534.356 155.648 534.717 155.648ZM541.737 154.604L541.732 152.431H542.02L544.765 149.364H546.868L543.492 153.122H543.119L541.737 154.604ZM540.096 157V146.818H541.896V157H540.096ZM544.889 157L542.403 153.525L543.616 152.257L547.042 157H544.889Z" fill="white"/>
</g>
<defs>
<filter id="filter0_d_1491_3202" x="233" y="48" width="338" height="144" filterUnits="userSpaceOnUse" color-interpolation-filters="sRGB">
<feFlood flood-opacity="0" result="BackgroundImageFix"/>
<feColorMatrix in="SourceAlpha" type="matrix" values="0 0 0 0 0 0 0 0 0 0 0 0 0 0 0 0 0 0 127 0" result="hardAlpha"/>
<feOffset dy="4"/>
<feGaussianBlur stdDeviation="6"/>
<feComposite in2="hardAlpha" operator="out"/>
<feColorMatrix type="matrix" values="0 0 0 0 0.1 0 0 0 0 0.1 0 0 0 0 0.1 0 0 0 1 0"/>
<feBlend mode="normal" in2="BackgroundImageFix" result="effect1_dropShadow_1491_3202"/>
<feBlend mode="normal" in="SourceGraphic" in2="effect1_dropShadow_1491_3202" result="shape"/>
</filter>
<clipPath id="clip0_1491_3202">
<rect width="276" height="24" fill="white" transform="translate(271.142 68)"/>
</clipPath>
<clipPath id="clip1_1491_3202">
<rect width="276" height="24" fill="white" transform="translate(271.142 104)"/>
</clipPath>
<clipPath id="clip2_1491_3202">
<rect width="276" height="24" fill="white" transform="translate(271.142 140)"/>
</clipPath>
</defs>
</svg>
