<svg width="200" height="200" viewBox="0 0 200 200" fill="none" xmlns="http://www.w3.org/2000/svg">
<circle cx="100" cy="100" r="100" fill="#F59757"/>
<path d="M200 100C200 118.432 194.906 136.505 185.28 152.224C175.654 167.943 161.871 180.696 145.452 189.073C129.034 197.451 110.62 201.128 92.2438 199.699C73.8672 198.269 56.2434 191.788 41.3185 180.972C26.3937 170.156 14.7487 155.425 7.66952 138.407C0.590359 121.388 -1.64747 102.745 1.20318 84.5343C4.05384 66.324 11.8821 49.2559 23.8233 35.2149C35.7645 21.174 51.3541 10.7066 68.8703 4.96874L100 100H200Z" fill="#E74E3A"/>
<path d="M200 100C200 118.341 194.956 136.329 185.419 151.996C175.882 167.663 162.22 180.406 145.928 188.829C129.635 197.253 111.34 201.034 93.0429 199.758C74.7461 198.482 57.1525 192.198 42.187 181.594L100 100H200Z" fill="#44C5FF"/>
<circle cx="100" cy="100" r="76" fill="#2B2B2B"/>
<path d="M80.0085 91.5455V109H76.3182V95.0483H76.2159L72.2188 97.554V94.2812L76.5398 91.5455H80.0085ZM90.8558 109.239C89.9581 109.233 89.0916 109.082 88.2564 108.787C87.4268 108.491 86.6825 108.011 86.0234 107.347C85.3643 106.682 84.8416 105.801 84.4553 104.705C84.0746 103.608 83.8842 102.261 83.8842 100.665C83.8899 99.1989 84.0575 97.8892 84.3871 96.7358C84.7223 95.5767 85.1996 94.5937 85.8189 93.7869C86.4439 92.9801 87.1911 92.3665 88.0604 91.946C88.9297 91.5199 89.9041 91.3068 90.9837 91.3068C92.1484 91.3068 93.1768 91.5341 94.0689 91.9886C94.9609 92.4375 95.6768 93.0483 96.2166 93.821C96.7621 94.5938 97.0916 95.4602 97.2053 96.4205H93.5661C93.424 95.8125 93.1257 95.3352 92.6712 94.9886C92.2166 94.642 91.6541 94.4688 90.9837 94.4688C89.8473 94.4688 88.9837 94.9631 88.3928 95.9517C87.8075 96.9403 87.5092 98.2841 87.4979 99.983H87.6172C87.8786 99.4659 88.2308 99.0256 88.674 98.6619C89.1229 98.2926 89.6314 98.0114 90.1996 97.8182C90.7734 97.6193 91.3786 97.5199 92.0149 97.5199C93.049 97.5199 93.9695 97.7642 94.7763 98.2528C95.5831 98.7358 96.2195 99.4006 96.6854 100.247C97.1513 101.094 97.3842 102.062 97.3842 103.153C97.3842 104.335 97.1087 105.386 96.5575 106.307C96.0121 107.227 95.2479 107.949 94.2649 108.472C93.2876 108.989 92.1513 109.244 90.8558 109.239ZM90.8388 106.341C91.407 106.341 91.9155 106.205 92.3643 105.932C92.8132 105.659 93.1655 105.29 93.4212 104.824C93.6768 104.358 93.8047 103.835 93.8047 103.256C93.8047 102.676 93.6768 102.156 93.4212 101.696C93.1712 101.236 92.8246 100.869 92.3814 100.597C91.9382 100.324 91.4325 100.188 90.8643 100.188C90.4382 100.188 90.0433 100.267 89.6797 100.426C89.3217 100.585 89.0064 100.807 88.7337 101.091C88.4666 101.375 88.2564 101.705 88.103 102.08C87.9496 102.449 87.8729 102.844 87.8729 103.264C87.8729 103.827 88.0007 104.341 88.2564 104.807C88.5178 105.273 88.87 105.645 89.3132 105.923C89.7621 106.202 90.2706 106.341 90.8388 106.341ZM106.512 109.239C105.2 109.239 104.032 109.026 103.009 108.599C101.992 108.168 101.194 107.58 100.614 106.835C100.035 106.091 99.745 105.247 99.745 104.304C99.745 103.577 99.9098 102.909 100.239 102.301C100.575 101.688 101.029 101.179 101.603 100.776C102.177 100.366 102.819 100.105 103.529 99.9915V99.8722C102.597 99.6847 101.842 99.233 101.262 98.517C100.683 97.7955 100.393 96.9574 100.393 96.0028C100.393 95.0994 100.657 94.2955 101.185 93.5909C101.714 92.8807 102.438 92.3239 103.359 91.9205C104.285 91.5114 105.336 91.3068 106.512 91.3068C107.688 91.3068 108.737 91.5114 109.657 91.9205C110.583 92.3295 111.31 92.8892 111.839 93.5994C112.367 94.304 112.634 95.1051 112.64 96.0028C112.634 96.9631 112.339 97.8011 111.754 98.517C111.168 99.233 110.418 99.6847 109.504 99.8722V99.9915C110.202 100.105 110.836 100.366 111.404 100.776C111.978 101.179 112.433 101.688 112.768 102.301C113.109 102.909 113.282 103.577 113.288 104.304C113.282 105.247 112.989 106.091 112.41 106.835C111.83 107.58 111.029 108.168 110.006 108.599C108.989 109.026 107.825 109.239 106.512 109.239ZM106.512 106.528C107.097 106.528 107.609 106.423 108.046 106.213C108.484 105.997 108.825 105.702 109.069 105.327C109.319 104.946 109.444 104.509 109.444 104.014C109.444 103.509 109.316 103.062 109.06 102.676C108.805 102.284 108.458 101.977 108.021 101.756C107.583 101.528 107.08 101.415 106.512 101.415C105.95 101.415 105.447 101.528 105.004 101.756C104.56 101.977 104.211 102.284 103.955 102.676C103.705 103.062 103.58 103.509 103.58 104.014C103.58 104.509 103.702 104.946 103.947 105.327C104.191 105.702 104.535 105.997 104.978 106.213C105.421 106.423 105.933 106.528 106.512 106.528ZM106.512 98.7301C107.001 98.7301 107.435 98.6307 107.816 98.4318C108.197 98.233 108.495 97.9574 108.711 97.6051C108.927 97.2528 109.035 96.8466 109.035 96.3864C109.035 95.9318 108.927 95.5341 108.711 95.1932C108.495 94.8466 108.2 94.5767 107.825 94.3835C107.45 94.1847 107.012 94.0852 106.512 94.0852C106.018 94.0852 105.58 94.1847 105.2 94.3835C104.819 94.5767 104.521 94.8466 104.305 95.1932C104.094 95.5341 103.989 95.9318 103.989 96.3864C103.989 96.8466 104.097 97.2528 104.313 97.6051C104.529 97.9574 104.827 98.233 105.208 98.4318C105.589 98.6307 106.023 98.7301 106.512 98.7301ZM119.192 105.233L119.2 100.878H119.729L123.922 95.9091H128.089L122.456 102.489H121.595L119.192 105.233ZM115.902 109V91.5455H119.533V109H115.902ZM124.084 109L120.232 103.298L122.652 100.733L128.337 109H124.084Z" fill="#F5F5F5"/>
</svg>
