<svg width="890" height="20" viewBox="0 0 890 20" fill="none" xmlns="http://www.w3.org/2000/svg">
<g clip-path="url(#clip0_2313_37655)">
<rect width="890" height="20" fill="#F9804C"/>
<rect opacity="0.5" width="45.6879" height="136.854" rx="8" transform="matrix(0.881568 0.472056 -0.494164 0.869368 19.3047 -58.8359)" fill="white"/>
<rect opacity="0.5" width="45.6879" height="136.854" rx="8" transform="matrix(0.881568 0.472056 -0.494164 0.869368 127.887 -58.8359)" fill="white"/>
<rect opacity="0.5" width="45.6879" height="136.854" rx="8" transform="matrix(0.881568 0.472056 -0.494164 0.869368 236.469 -58.8359)" fill="white"/>
<rect opacity="0.5" width="45.6879" height="136.854" rx="8" transform="matrix(0.881568 0.472056 -0.494164 0.869368 345.051 -58.8359)" fill="white"/>
<rect opacity="0.5" width="45.6879" height="136.854" rx="8" transform="matrix(0.881568 0.472056 -0.494164 0.869368 453.633 -58.8359)" fill="white"/>
<rect opacity="0.5" width="45.6879" height="136.854" rx="8" transform="matrix(0.881568 0.472056 -0.494164 0.869368 562.215 -58.8359)" fill="white"/>
<rect opacity="0.5" width="45.6879" height="136.854" rx="8" transform="matrix(0.881568 0.472056 -0.494164 0.869368 670.797 -58.8359)" fill="white"/>
<rect opacity="0.5" width="45.6879" height="136.854" rx="8" transform="matrix(0.881568 0.472056 -0.494164 0.869368 779.379 -58.8359)" fill="white"/>
<rect opacity="0.5" width="45.6879" height="136.854" rx="8" transform="matrix(0.881568 0.472056 -0.494164 0.869368 887.961 -58.8359)" fill="white"/>
</g>
<defs>
<clipPath id="clip0_2313_37655">
<rect width="890" height="20" fill="white"/>
</clipPath>
</defs>
</svg>
